<svg xmlns="http://www.w3.org/2000/svg" xmlns:xlink="http://www.w3.org/1999/xlink" width="960.327" height="246.05" viewBox="0 0 960.327 246.05">
  <defs>
    <linearGradient id="linear-gradient" x1="0.117" y1="0.5" x2="1.117" y2="0.5" gradientUnits="objectBoundingBox">
      <stop offset="0" stop-color="#faeb61"/>
      <stop offset="0.522" stop-color="#f37c21"/>
      <stop offset="0.908" stop-color="#faeb61"/>
    </linearGradient>
    <linearGradient id="linear-gradient-2" x1="0.268" y1="0.164" x2="0.75" y2="0.982" gradientUnits="objectBoundingBox">
      <stop offset="0" stop-color="#f9ae1d"/>
      <stop offset="0.524" stop-color="#f37b20"/>
      <stop offset="0.543" stop-color="#f37d1f"/>
      <stop offset="0.839" stop-color="#f7a01d"/>
      <stop offset="0.997" stop-color="#f9ae1d"/>
    </linearGradient>
    <linearGradient id="linear-gradient-3" x1="0.877" y1="-0.787" x2="0.66" y2="-0.261" gradientUnits="objectBoundingBox">
      <stop offset="0" stop-color="#f37b20"/>
      <stop offset="1" stop-color="#f9ae1d"/>
    </linearGradient>
    <linearGradient id="linear-gradient-4" x1="0.522" y1="0.587" x2="0.243" y2="0.822" gradientUnits="objectBoundingBox">
      <stop offset="0" stop-color="#f9ae1d"/>
      <stop offset="1" stop-color="#f37b20"/>
    </linearGradient>
    <linearGradient id="linear-gradient-5" x1="0.211" y1="0.684" x2="0.57" y2="0.313" xlink:href="#linear-gradient-3"/>
    <linearGradient id="linear-gradient-6" x1="0.823" y1="0.698" x2="0.357" y2="0.437" xlink:href="#linear-gradient-3"/>
    <linearGradient id="linear-gradient-7" x1="0.573" y1="0.373" x2="0.362" y2="0.605" xlink:href="#linear-gradient-4"/>
    <linearGradient id="linear-gradient-8" x1="0.041" y1="0.366" x2="0.532" y2="0.662" xlink:href="#linear-gradient-4"/>
    <linearGradient id="linear-gradient-9" x1="0.31" y1="0.724" x2="0.646" y2="0.479" xlink:href="#linear-gradient-3"/>
  </defs>
  <g id="Group_66" data-name="Group 66" transform="translate(-815.435 -462.875)">
    <g id="Group_61" data-name="Group 61">
      <path id="Path_253" data-name="Path 253" d="M1250.259,547.11h17.058v5.175h-10.724v6.376h10.021v5.134h-10.021v11.221h-6.334Z" fill="#fff"/>
      <path id="Path_254" data-name="Path 254" d="M1297.619,560.773c0,9.15-5.547,14.7-13.7,14.7-8.282,0-13.126-6.251-13.126-14.2,0-8.363,5.341-14.615,13.58-14.615C1292.942,546.655,1297.619,553.072,1297.619,560.773Zm-20.162.372c0,5.466,2.567,9.316,6.79,9.316,4.264,0,6.707-4.057,6.707-9.481,0-5.01-2.4-9.316-6.749-9.316C1279.941,551.664,1277.457,555.722,1277.457,561.145Z" fill="#fff"/>
      <path id="Path_255" data-name="Path 255" d="M1308.046,547.11v16.065c0,4.8,1.822,7.245,5.052,7.245,3.312,0,5.133-2.318,5.133-7.245V547.11h6.294v15.651c0,8.611-4.348,12.71-11.635,12.71-7.038,0-11.178-3.892-11.178-12.794V547.11Z" fill="#fff"/>
      <path id="Path_256" data-name="Path 256" d="M1329.985,575.016V547.11h7.369l5.8,10.226a81.069,81.069,0,0,1,4.554,9.565h.125a103.355,103.355,0,0,1-.539-11.635V547.11h5.8v27.906h-6.626l-5.961-10.765a103.338,103.338,0,0,1-4.844-9.854l-.125.042c.166,3.684.248,7.617.248,12.172v8.4Z" fill="#fff"/>
      <path id="Path_257" data-name="Path 257" d="M1358.547,547.482a56.416,56.416,0,0,1,8.528-.579c5.3,0,8.737.953,11.428,2.981,2.9,2.153,4.721,5.589,4.721,10.516,0,5.341-1.947,9.027-4.638,11.3-2.939,2.443-7.412,3.6-12.876,3.6a54.694,54.694,0,0,1-7.163-.413Zm6.334,22.772a11.638,11.638,0,0,0,2.194.124c5.714.042,9.44-3.1,9.44-9.771.042-5.8-3.353-8.86-8.776-8.86a13.07,13.07,0,0,0-2.858.249Z" fill="#fff"/>
      <path id="Path_258" data-name="Path 258" d="M1393.2,567.853l-1.988,7.163h-6.542l8.53-27.906h8.28l8.653,27.906h-6.79l-2.154-7.163Zm7.079-4.72-1.738-5.921c-.5-1.656-.995-3.726-1.409-5.382h-.083c-.413,1.656-.827,3.768-1.283,5.382l-1.656,5.921Z" fill="#fff"/>
      <path id="Path_259" data-name="Path 259" d="M1415.8,552.409H1408.3v-5.3h21.448v5.3h-7.618v22.607H1415.8Z" fill="#fff"/>
      <path id="Path_260" data-name="Path 260" d="M1439.432,547.11v27.906H1433.1V547.11Z" fill="#fff"/>
      <path id="Path_261" data-name="Path 261" d="M1470.44,560.773c0,9.15-5.547,14.7-13.7,14.7-8.282,0-13.126-6.251-13.126-14.2,0-8.363,5.341-14.615,13.58-14.615C1465.762,546.655,1470.44,553.072,1470.44,560.773Zm-20.162.372c0,5.466,2.566,9.316,6.79,9.316,4.263,0,6.707-4.057,6.707-9.481,0-5.01-2.4-9.316-6.749-9.316C1452.761,551.664,1450.278,555.722,1450.278,561.145Z" fill="#fff"/>
      <path id="Path_262" data-name="Path 262" d="M1474.575,575.016V547.11h7.369l5.8,10.226a80.941,80.941,0,0,1,4.555,9.565h.124a103.555,103.555,0,0,1-.539-11.635V547.11h5.8v27.906h-6.625l-5.962-10.765a103.63,103.63,0,0,1-4.844-9.854l-.124.042c.166,3.684.248,7.617.248,12.172v8.4Z" fill="#fff"/>
      <path id="Path_263" data-name="Path 263" d="M1518,567.853l-1.987,7.163h-6.543L1518,547.11h8.281l8.653,27.906h-6.79l-2.153-7.163Zm7.08-4.72-1.74-5.921c-.5-1.656-.993-3.726-1.407-5.382h-.083c-.413,1.656-.827,3.768-1.283,5.382l-1.657,5.921Z" fill="#fff"/>
      <path id="Path_264" data-name="Path 264" d="M1538.652,575.016V547.11h7.37l5.8,10.226a80.941,80.941,0,0,1,4.555,9.565h.124a103.594,103.594,0,0,1-.538-11.635V547.11h5.8v27.906h-6.626l-5.961-10.765a103.107,103.107,0,0,1-4.844-9.854l-.125.042c.166,3.684.248,7.617.248,12.172v8.4Z" fill="#fff"/>
      <path id="Path_265" data-name="Path 265" d="M1567.215,575.016V547.11h7.369l5.8,10.226a80.935,80.935,0,0,1,4.554,9.565h.125a103.555,103.555,0,0,1-.539-11.635V547.11h5.8v27.906h-6.625l-5.962-10.765a103.367,103.367,0,0,1-4.844-9.854l-.125.042c.167,3.684.248,7.617.248,12.172v8.4Z" fill="#fff"/>
      <path id="Path_266" data-name="Path 266" d="M1602.11,547.11v27.906h-6.334V547.11Z" fill="#fff"/>
      <path id="Path_267" data-name="Path 267" d="M1614.156,575.016l-8.943-27.906h6.915l3.395,11.8c.952,3.312,1.821,6.5,2.484,9.978h.124c.7-3.354,1.574-6.666,2.525-9.854l3.562-11.924h6.707l-9.4,27.906Z" fill="#fff"/>
      <path id="Path_268" data-name="Path 268" d="M1650.5,563.216h-10.268v6.624H1651.7v5.176h-17.8V547.11h17.223v5.175h-10.888v5.8H1650.5Z" fill="#fff"/>
      <path id="Path_269" data-name="Path 269" d="M1656.005,547.482a55.473,55.473,0,0,1,8.405-.579c4.14,0,7.038.621,9.026,2.194a7.088,7.088,0,0,1,2.567,5.838,7.406,7.406,0,0,1-4.927,6.873v.124c1.946.787,3.022,2.65,3.726,5.217.87,3.147,1.739,6.79,2.277,7.867h-6.459a34.869,34.869,0,0,1-1.946-6.5c-.745-3.477-1.946-4.43-4.513-4.471h-1.905v10.972h-6.251Zm6.251,12.008h2.485c3.146,0,5.009-1.574,5.009-4.017,0-2.566-1.738-3.85-4.636-3.891a15.756,15.756,0,0,0-2.858.207Z" fill="#fff"/>
      <path id="Path_270" data-name="Path 270" d="M1680.758,568.515a16.1,16.1,0,0,0,7,1.739c2.9,0,4.43-1.2,4.43-3.022,0-1.739-1.324-2.732-4.679-3.933-4.636-1.615-7.659-4.182-7.659-8.24,0-4.761,3.974-8.4,10.558-8.4a17.106,17.106,0,0,1,7.121,1.407l-1.407,5.093a13.26,13.26,0,0,0-5.839-1.325c-2.733,0-4.057,1.242-4.057,2.691,0,1.781,1.574,2.567,5.175,3.934,4.927,1.821,7.246,4.388,7.246,8.322,0,4.678-3.6,8.653-11.262,8.653a18.245,18.245,0,0,1-7.907-1.7Z" fill="#fff"/>
      <path id="Path_271" data-name="Path 271" d="M1709.405,567.853l-1.988,7.163h-6.542l8.53-27.906h8.281l8.653,27.906h-6.79l-2.154-7.163Zm7.08-4.72-1.739-5.921c-.5-1.656-.994-3.726-1.408-5.382h-.084c-.412,1.656-.827,3.768-1.282,5.382l-1.657,5.921Z" fill="#fff"/>
      <path id="Path_272" data-name="Path 272" d="M1730.058,547.482a55.484,55.484,0,0,1,8.405-.579c4.141,0,7.038.621,9.026,2.194a7.088,7.088,0,0,1,2.567,5.838,7.4,7.4,0,0,1-4.927,6.873v.124c1.946.787,3.022,2.65,3.726,5.217.87,3.147,1.74,6.79,2.277,7.867h-6.459a34.882,34.882,0,0,1-1.946-6.5c-.745-3.477-1.946-4.43-4.513-4.471h-1.9v10.972h-6.252Zm6.252,12.008h2.484c3.146,0,5.009-1.574,5.009-4.017,0-2.566-1.738-3.85-4.636-3.891a15.729,15.729,0,0,0-2.857.207Z" fill="#fff"/>
      <path id="Path_273" data-name="Path 273" d="M1760.277,575.016V563.588l-8.819-16.478h7.2l2.856,6.707c.87,2.029,1.451,3.519,2.154,5.341h.083c.621-1.739,1.283-3.353,2.111-5.341l2.816-6.707h7.08l-9.192,16.271v11.635Z" fill="#fff"/>
      <path id="Path_274" data-name="Path 274" d="M1256.532,603.367h-.083l-5.134,2.443-1.034-4.72,7.121-3.313h5.216V624.69h-6.086Z" fill="#fff"/>
      <path id="Path_275" data-name="Path 275" d="M1273.46,620.135a14.8,14.8,0,0,0,2.733,0,10.811,10.811,0,0,0,5.3-1.656,8.373,8.373,0,0,0,3.395-4.968l-.125-.042a7.1,7.1,0,0,1-5.381,1.946,8.107,8.107,0,0,1-8.4-8.4,9.783,9.783,0,0,1,10.143-9.688c6.915,0,10.185,5.3,10.185,11.593,0,5.59-1.78,9.688-4.72,12.38a15.91,15.91,0,0,1-10.267,3.767,21.6,21.6,0,0,1-2.858,0Zm3.81-13.5c0,2.318,1.242,4.306,3.809,4.306a3.965,3.965,0,0,0,3.478-1.781,2.972,2.972,0,0,0,.331-1.573c0-2.857-1.076-5.672-3.934-5.672C1278.8,601.918,1277.228,603.822,1277.27,606.638Z" fill="#fff"/>
      <path id="Path_276" data-name="Path 276" d="M1296.435,620.135a14.794,14.794,0,0,0,2.733,0,10.807,10.807,0,0,0,5.3-1.656,8.375,8.375,0,0,0,3.4-4.968l-.125-.042a7.1,7.1,0,0,1-5.382,1.946,8.108,8.108,0,0,1-8.4-8.4,9.784,9.784,0,0,1,10.144-9.688c6.915,0,10.185,5.3,10.185,11.593,0,5.59-1.78,9.688-4.721,12.38a15.907,15.907,0,0,1-10.267,3.767,21.581,21.581,0,0,1-2.857,0Zm3.809-13.5c0,2.318,1.243,4.306,3.809,4.306a3.965,3.965,0,0,0,3.478-1.781,2.96,2.96,0,0,0,.332-1.573c0-2.857-1.077-5.672-3.934-5.672C1301.776,601.918,1300.2,603.822,1300.244,606.638Z" fill="#fff"/>
      <path id="Path_277" data-name="Path 277" d="M1317.008,617.651c0-3.229,1.863-5.465,4.8-6.749v-.123a6.533,6.533,0,0,1-3.892-5.88c0-4.554,4.1-7.577,9.481-7.577,6.293,0,8.9,3.643,8.9,6.914a6.559,6.559,0,0,1-3.893,5.921v.124a7.123,7.123,0,0,1,4.927,6.708c0,4.885-4.1,8.156-10.351,8.156C1320.153,625.145,1317.008,621.295,1317.008,617.651Zm13.911-.207c0-2.36-1.74-3.768-4.223-4.43a4.082,4.082,0,0,0-3.271,4.016,3.686,3.686,0,0,0,3.808,3.768A3.381,3.381,0,0,0,1330.919,617.444Zm-7.081-12.752c0,1.822,1.657,2.981,3.809,3.643a3.683,3.683,0,0,0,2.733-3.436,3.086,3.086,0,0,0-3.27-3.312A3,3,0,0,0,1323.838,604.692Z" fill="#fff"/>
      <path id="Path_278" data-name="Path 278" d="M1359.188,611.73v4.182h-10.847V611.73Z" fill="#fff"/>
      <path id="Path_279" data-name="Path 279" d="M1367.572,624.69v-3.809l3.478-3.147c5.88-5.258,8.736-8.281,8.819-11.427,0-2.2-1.325-3.934-4.429-3.934a9.758,9.758,0,0,0-5.756,2.236l-1.78-4.513a14.9,14.9,0,0,1,8.818-2.774c6.087,0,9.44,3.561,9.44,8.446,0,4.513-3.27,8.115-7.162,11.593l-2.484,2.071v.082h10.143v5.176Z" fill="#fff"/>
      <path id="Path_280" data-name="Path 280" d="M1410.419,611.11c0,8.322-3.353,14.035-10.226,14.035-6.956,0-10.02-6.252-10.062-13.87,0-7.784,3.313-13.953,10.268-13.953C1407.6,597.322,1410.419,603.74,1410.419,611.11Zm-13.952.165c-.042,6.169,1.449,9.109,3.891,9.109s3.769-3.064,3.769-9.192c0-5.962-1.284-9.109-3.81-9.109C1398,602.083,1396.425,605.023,1396.467,611.275Z" fill="#fff"/>
      <path id="Path_281" data-name="Path 281" d="M1413.52,624.69v-3.809l3.478-3.147c5.88-5.258,8.736-8.281,8.819-11.427,0-2.2-1.325-3.934-4.43-3.934a9.755,9.755,0,0,0-5.755,2.236l-1.78-4.513a14.9,14.9,0,0,1,8.818-2.774c6.087,0,9.44,3.561,9.44,8.446,0,4.513-3.27,8.115-7.163,11.593l-2.483,2.071v.082h10.143v5.176Z" fill="#fff"/>
      <path id="Path_282" data-name="Path 282" d="M1436.08,617.651c0-3.229,1.863-5.465,4.8-6.749v-.123a6.532,6.532,0,0,1-3.893-5.88c0-4.554,4.1-7.577,9.482-7.577,6.293,0,8.9,3.643,8.9,6.914a6.558,6.558,0,0,1-3.892,5.921v.124a7.125,7.125,0,0,1,4.927,6.708c0,4.885-4.1,8.156-10.351,8.156C1439.226,625.145,1436.08,621.295,1436.08,617.651Zm13.911-.207c0-2.36-1.739-3.768-4.223-4.43a4.081,4.081,0,0,0-3.27,4.016,3.685,3.685,0,0,0,3.808,3.768A3.38,3.38,0,0,0,1449.991,617.444Zm-7.08-12.752c0,1.822,1.656,2.981,3.809,3.643a3.683,3.683,0,0,0,2.733-3.436,3.086,3.086,0,0,0-3.271-3.312A3,3,0,0,0,1442.911,604.692Z" fill="#fff"/>
    </g>
    <g id="Group_65" data-name="Group 65">
      <g id="Group_62" data-name="Group 62">
        <path id="Path_283" data-name="Path 283" d="M1212.04,592.568c-3.48,28.4-18.956,46.859-24.659,53.486-16.789,19.5-35.975,27.4-44.8,30.911-25.187,10.023-46.838,8.919-61.821,7.988-18.547-1.153-36.767-4.862-53.848-12.35-21.54-9.454-40.08-24.924-57.452-40.5-14.664-13.163-29.612-26.486-48.117-33.974-8.537-3.459-21.013-8.357-37.51-7.641-9.1.4-27.855,1.2-38.9,14.934-1.848,2.293-6.849,8.662-7.155,17.97-.493,14.775,11.976,25.125,12.358,25.438A34.034,34.034,0,0,1,835.9,634.593c-7.565-14.956.055-30.585,1.736-34.037,9.968-20.45,33.044-26.424,40.983-28.48,19.755-5.112,40.573-1.966,58.884,6.627,18.887,8.856,34.009,23.909,49.013,38.038,16.754,15.775,33.675,31.9,53.791,43.372a121.176,121.176,0,0,0,59.745,15.768,112.576,112.576,0,0,0,56.765-14.545c37.892-21.8,59.891-70.8,49.652-110.272a76.232,76.232,0,0,0-7.974-19.276l.542-.375C1206.247,544.034,1215.319,565.811,1212.04,592.568Z" fill="url(#linear-gradient)"/>
        <path id="Path_284" data-name="Path 284" d="M840.762,617.922a29,29,0,0,1,5.406-9.462,40.169,40.169,0,0,1,8.219-7.312,67.3,67.3,0,0,1,9.71-5.239l2.586-.99,1.3-.495c.436-.154.884-.27,1.326-.407l2.663-.794c.9-.225,1.809-.4,2.715-.606l1.361-.294c.457-.083.919-.131,1.378-.2l2.764-.372,2.784-.173c.464-.024.928-.066,1.393-.075l1.4.014a60.4,60.4,0,0,1,11.1,1.043l2.732.561c.913.179,1.8.458,2.7.689,1.808.444,3.551,1.077,5.319,1.641a97.728,97.728,0,0,1,10.226,4.308,135.869,135.869,0,0,1,18.942,11.33c6.013,4.216,11.751,8.772,17.371,13.436s11.033,9.543,16.469,14.344c1.354,1.215,2.722,2.386,4.094,3.546l4.109,3.5c1.368,1.169,2.809,2.245,4.209,3.373,1.417,1.107,2.807,2.248,4.244,3.327a210.887,210.887,0,0,0,36.595,22.558c1.588.837,3.25,1.506,4.889,2.23l4.929,2.147,5.035,1.876c1.681.617,3.344,1.294,5.068,1.781,3.426,1.042,6.822,2.2,10.321,2.979l5.213,1.31,5.282,1c3.509.765,7.084,1.076,10.641,1.548,1.776.273,3.571.323,5.361.441l5.375.345c1.795.033,3.591.011,5.388.02l2.7,0h1.349c.449-.009.9-.052,1.345-.077l5.386-.345,2.7-.172,2.7-.263a133.6,133.6,0,0,0,21.2-4.146c3.5-.938,6.968-1.982,10.426-3.079,3.464-1.081,6.912-2.226,10.359-3.374-3.362,1.377-6.725,2.752-10.116,4.067-3.4,1.3-6.821,2.536-10.283,3.678a129.835,129.835,0,0,1-21.3,5.223c-.9.134-1.8.263-2.71.374l-2.732.275-5.47.55c-.456.041-.912.1-1.369.127l-1.374.049-2.748.1c-1.833.057-3.668.146-5.5.177l-5.505-.168c-1.835-.073-3.676-.079-5.5-.309-3.652-.386-7.331-.615-10.947-1.3l-5.448-.882-5.384-1.2c-3.614-.726-7.114-1.871-10.652-2.884-1.78-.475-3.5-1.14-5.233-1.746l-5.2-1.847-5.092-2.121c-1.693-.717-3.413-1.38-5.054-2.21a211.393,211.393,0,0,1-37.58-22.858c-1.461-1.109-2.872-2.279-4.31-3.416-1.422-1.156-2.886-2.263-4.273-3.459l-4.164-3.585c-1.395-1.192-2.778-2.39-4.121-3.607-5.411-4.855-10.814-9.669-16.282-14.388-10.939-9.393-22.382-18.26-35.042-24.891a93.986,93.986,0,0,0-9.728-4.4c-1.676-.582-3.334-1.236-5.045-1.7-.854-.239-1.694-.538-2.556-.74l-2.582-.628A57.5,57.5,0,0,0,885.7,594.3l-1.327-.062c-.442-.007-.885.018-1.327.025l-2.657.067-2.646.262c-.441.048-.884.076-1.323.14l-1.312.224c-.873.155-1.754.283-2.625.459l-2.59.645c-.43.112-.868.2-1.294.333l-1.269.42-2.543.84-2.476,1.028a25.233,25.233,0,0,0-2.45,1.1c-1.594.817-3.238,1.561-4.757,2.5a39.479,39.479,0,0,0-8.4,6.67A28.639,28.639,0,0,0,840.762,617.922Z" fill="url(#linear-gradient-2)"/>
        <path id="Path_285" data-name="Path 285" d="M977.386,684.951a169.575,169.575,0,0,1-25.094,10.376,165.256,165.256,0,0,1-26.582,6.095c-2.251.388-4.523.588-6.794.829l-3.411.351-3.44.248c-4.588.3-9.183.458-13.775.446a138.881,138.881,0,0,1-27.367-2.563,84.957,84.957,0,0,1-25.761-9.4A63.661,63.661,0,0,1,824.786,672.8a64.549,64.549,0,0,0,19.461,20.013,87.55,87.55,0,0,0,25.877,11.3,143.234,143.234,0,0,0,27.987,4.39c4.715.306,9.439.434,14.159.421l3.54-.035,3.556-.142c2.373-.1,4.753-.166,7.117-.422a173.07,173.07,0,0,0,28.19-4.648,179.125,179.125,0,0,0,27.144-9.3,183.076,183.076,0,0,0,26.424-14.171q-5.795-3.153-11.559-6.772A171.391,171.391,0,0,1,977.386,684.951Z" fill="url(#linear-gradient-3)"/>
        <path id="Path_286" data-name="Path 286" d="M1024.491,602.987c0-42.71-41.312-54.176-41.33-54.181,1.631.453,4.864-.762,6.453-1.076a126.541,126.541,0,0,0,15.914-4.234c13.536-4.572,27.306-11.721,35.857-23.55,7.786-10.769,9.118-26,.334-36.633-7.142-8.642-18.543-12.589-29.944-14.5-1.23-.206-2.459-.385-3.684-.547l3.549,1.352c19.025,9.734,29.2,27.77,13.894,45.926-17.235,20.44-46.934,32.087-72.242,38.818,0,0,15.446-2.86,28.535,6.68a37.6,37.6,0,0,1,12.1,15.2c5.9,12.938,2.883,25.388,1.737,30.216a47.632,47.632,0,0,1-2.914,8.518c7.744,7.291,15.628,14.668,23.879,21.549C1027,617.694,1024.491,602.987,1024.491,602.987Z" fill="url(#linear-gradient-4)"/>
        <path id="Path_287" data-name="Path 287" d="M1041.655,635.092a84.7,84.7,0,0,0,2.713-16.123,79.619,79.619,0,0,0-.761-16.234,67.322,67.322,0,0,0-11.882-29.46,53.489,53.489,0,0,0-11.084-11.187,54.059,54.059,0,0,0-13.632-7.377,53.161,53.161,0,0,1,12.517,8.708,50.882,50.882,0,0,1,9.3,11.765,62.125,62.125,0,0,1,7.875,28.273,71.733,71.733,0,0,1-.955,14.507,75.149,75.149,0,0,1-3.99,13.886,80.807,80.807,0,0,1-5.928,11.99q4.89,3.682,9.992,7.019A92.95,92.95,0,0,0,1041.655,635.092Z" fill="url(#linear-gradient-5)"/>
        <path id="Path_288" data-name="Path 288" d="M939.052,552.279a133.751,133.751,0,0,0,39.4-16.2c10.084-6.3,20.892-13.35,26.806-24.009,9.948-17.929-10.514-26.869-25.407-26.7a93.979,93.979,0,0,0-46.294,13.376A130.894,130.894,0,0,0,916.728,510.9c-1.262,1.069-5.743,3.869-6.156,5.606,6.6-27.782-14.931-48.273-14.934-48.276,4.6,4.376,13.538,3.9,19.423,4.169,14.126.64,28-.945,41.991-2.68,13.844-1.716,27.892-3.994,41.6-.407,14.538,3.8,27.222,13.065,28.273,29.134,2.431,37.162-106.972,59.39-106.972,59.39Z" fill="url(#linear-gradient-6)"/>
        <path id="Path_289" data-name="Path 289" d="M1199.886,558.394c-9.1-45.671-54.261-78.53-100.6-69.855-21.637,4.051-41.93,17.539-52.379,37.378a61.039,61.039,0,0,0-6.787,35.653c-.909-7.323,6.583-19.257,10.578-25.126a71.475,71.475,0,0,1,19.513-19.229c29.312-19.47,68.3-14.148,92.855,10.753,26.788,27.163,30.375,75.958,3.117,104.091-21.267,21.951-56.569,28.128-85.43,20.941a96.5,96.5,0,0,1-33.868-15.99,98.711,98.711,0,0,1-5.463,14.96c.823.462,1.657.923,2.515,1.378a117.013,117.013,0,0,0,90.236,7.593C1177.211,646.877,1209.084,604.577,1199.886,558.394Z" fill="url(#linear-gradient-7)"/>
        <path id="Path_290" data-name="Path 290" d="M977.192,659.7q-.74-.594-1.482-1.184l-.076-.06c-.478-.389-.961-.772-1.444-1.154-.972-.771-1.977-1.568-2.986-2.44l-4.157-3.576c-1.252-1.071-2.753-2.365-4.254-3.725l-.309-.277a162.545,162.545,0,0,1-26.211,13.7c-27.929,11.75-54.552,11.911-73.3,9.687a59.6,59.6,0,0,1-19.431-8.992,53.871,53.871,0,0,1-21.188-34.394,51.686,51.686,0,0,1,2.3-25.9,47.926,47.926,0,0,1,18.19-23.064,45.446,45.446,0,0,0-18.527,15.711c-10.795,15.59-9.113,32.6-8.216,40.9a62.355,62.355,0,0,0,24.717,43.236c15.758,11.582,38.128,16.193,57.249,17.545,16.293,1.152,32.519-1.711,47.175-6.222,2.667-.821,5.28-1.7,7.834-2.613a173.635,173.635,0,0,0,34.882-19.209q-3.923-2.72-7.812-5.642C979.107,661.244,978.133,660.461,977.192,659.7Z" fill="url(#linear-gradient-8)"/>
        <path id="Path_291" data-name="Path 291" d="M1168.472,542.229a68.854,68.854,0,0,0-28.7-26.966,60.946,60.946,0,0,0-9.96-3.887c-34.112-9.869-76.715,10.11-86.183,45.772,1.6-6.04,7.261-12.391,11.239-16.874a75.181,75.181,0,0,1,39.95-23.449c27.725-6.144,59.143,4.447,74.755,29.207l2.125,3.439Z" fill="url(#linear-gradient-9)"/>
      </g>
      <g id="Group_63" data-name="Group 63">
        <path id="Path_292" data-name="Path 292" d="M1053.147,595.834a11.062,11.062,0,0,1,1.137-4.517,33.6,33.6,0,0,1,2.947-5.125q1.809-2.627,3.684-4.885t4.949-5.878q3.4-3.876,4.949-5.894a6.081,6.081,0,0,0,1.554-3.012q0-.8-1.186-.8a8.356,8.356,0,0,0-1.569.192,26.754,26.754,0,0,0-5.189,1.746q-2.5,1.137-5.991,3.123a35.334,35.334,0,0,1-6.086,2.947,1.872,1.872,0,0,0-.32.064h-.353a3.587,3.587,0,0,1-2.274-.913,2.457,2.457,0,0,1-1.121-1.778.855.855,0,0,1,.32-.705,2.982,2.982,0,0,1,1.249-.737c.128,0,.193.129.193.385,0,.364.117.545.352.545a2.073,2.073,0,0,0,.833-.321q2.241-1.312,4.9-2.562t5.446-2.307a41.553,41.553,0,0,1,5.349-1.649,20.58,20.58,0,0,1,4.581-.593,6.2,6.2,0,0,1,4.132,1.185,5.828,5.828,0,0,1,2.114,4.549,12.978,12.978,0,0,1-1.906,6.23q-1.906,3.412-5.717,8.857-2.372,3.268-3.909,5.59a36.646,36.646,0,0,0-2.594,4.565,6.34,6.34,0,0,0-.833,2.242c0,.3.128.449.385.449a5.839,5.839,0,0,0,2.145-.865,20.646,20.646,0,0,0,4.085-3.028q2.353-2.129,6.358-6.005,3.011-2.948,5.221-5.014t4.373-3.844a29.161,29.161,0,0,1,4.021-2.835,6.789,6.789,0,0,1,3.235-1.056,2.335,2.335,0,0,1,1.057.224q2.241,1.024,2.242,4.388a20.877,20.877,0,0,1-.913,5.558q-.914,3.219-2.707,7.96a.5.5,0,0,1-.064.192v.128a.34.34,0,0,0,.385.385l.224-.064a.482.482,0,0,1,.192-.064q1.313-.77,4.068-2.307,1.826-.961,2.563-1.441a1.243,1.243,0,0,1,.641-.256.17.17,0,0,1,.192.192q0,.544-.77.929-1.728.928-4.051,2.466t-4.084,2.851l-.128.064a5.456,5.456,0,0,0-1.859,2.018,68.51,68.51,0,0,1-3.956,7.656q-2.259,3.78-4.629,7.016a59.933,59.933,0,0,1-4.532,5.541,22.23,22.23,0,0,1-3.668,3.3,1.574,1.574,0,0,1-.929.321q-1.441,0-2.787-1.938a7.642,7.642,0,0,1-1.473-3.828A10.028,10.028,0,0,1,1069,610.7a26.487,26.487,0,0,1,3.571-4.981,48.9,48.9,0,0,1,4.692-4.581,57.763,57.763,0,0,1,4.741-3.668,9.756,9.756,0,0,0,1.794-1.3,12.994,12.994,0,0,0,1.474-1.842,41.9,41.9,0,0,0,4.821-8.649,20.077,20.077,0,0,0,1.81-6.887q0-1.633-.865-1.633a2.864,2.864,0,0,0-1.634.832q-.576.546-1.665,1.778t-3.4,4.148q-3.332,4.133-5.83,7.08t-5.477,5.958a42.836,42.836,0,0,1-5.638,4.885,8.467,8.467,0,0,1-4.613,1.874.775.775,0,0,1-.288-.064h-.257a12.261,12.261,0,0,1-3.667-1.25,24.733,24.733,0,0,1-3.6-2.5A5.117,5.117,0,0,1,1053.147,595.834Z" fill="#fff"/>
        <path id="Path_293" data-name="Path 293" d="M1107.314,595.193q-.607,0-.608-.321a1.031,1.031,0,0,1,.3-.64,2.655,2.655,0,0,1,.624-.545,43.426,43.426,0,0,0,4.854-3.812,5.367,5.367,0,0,0,1.842-3.139c0-.49-.225-.737-.673-.737a3.345,3.345,0,0,0-1.441.513,18.073,18.073,0,0,0-3.043,2.082,27.6,27.6,0,0,0-3.476,3.444,23.768,23.768,0,0,0-3.092,4.661,18.158,18.158,0,0,0-1.794,5.445v.256l-.063.193q0,1.185,1.377,1.185a10.7,10.7,0,0,0,4.068-1.281,50.3,50.3,0,0,0,5.766-3.284q3.077-2,5.894-4.2a39.283,39.283,0,0,0,4.357-3.828.553.553,0,0,1,.384-.192c.17,0,.256.107.256.32a.854.854,0,0,1-.192.513,38.853,38.853,0,0,1-4.068,4.772,47.22,47.22,0,0,1-5.221,4.565,30.488,30.488,0,0,1-5.574,3.38,12.349,12.349,0,0,1-5.093,1.281,5.427,5.427,0,0,1-4.9-2.755,6.726,6.726,0,0,1-.993-3.619,11,11,0,0,1,.625-3.54,24.6,24.6,0,0,1,1.682-3.8,30.574,30.574,0,0,1,2.37-3.7,37.726,37.726,0,0,1,2.963-3.54,20.392,20.392,0,0,1,3.124-2.722,5.182,5.182,0,0,1,2.883-1.09,2.339,2.339,0,0,1,1.441.481,17.411,17.411,0,0,1,2.851,2.323,20.422,20.422,0,0,1,2.146,2.706,2.316,2.316,0,0,1,.385,1.25,3.437,3.437,0,0,1-.913,2.21,12.152,12.152,0,0,1-2.354,2.1,21.753,21.753,0,0,1-3,1.762,26.637,26.637,0,0,1-2.739,1.169A5.426,5.426,0,0,1,1107.314,595.193Z" fill="#fff"/>
        <path id="Path_294" data-name="Path 294" d="M1138.227,579.177a3.4,3.4,0,0,1,2.435,1.121,12.266,12.266,0,0,1,2.242,3.683,1.153,1.153,0,0,1,.191.577q0,.449-.48.449a1.1,1.1,0,0,1-.832-.449,1.771,1.771,0,0,0-1.442-.577,9.553,9.553,0,0,0-3.94,1.2,31.151,31.151,0,0,0-5.029,3.171,39.681,39.681,0,0,0-4.693,4.164,16.669,16.669,0,0,0-3.027,4.117,2.2,2.2,0,0,0-.257.992q0,.834.673.833a2.517,2.517,0,0,0,1.378-.7q1.25-.993,3.651-3.108,3.619-3.074,5.783-4.773a15.381,15.381,0,0,1,3.218-2.114,3.7,3.7,0,0,1,1.314-.256,2.757,2.757,0,0,1,2.291,1.089,3.825,3.825,0,0,1,.849,2.4,3.252,3.252,0,0,1-.128.9,7.213,7.213,0,0,1-.786,1.747q-.592,1.008-1.649,2.8-1.091,1.891-1.682,3.012a18.324,18.324,0,0,0-.913,1.954,2.08,2.08,0,0,0-.16.736q0,.77.544.769a1.109,1.109,0,0,0,.641-.32q.866-.641,2.178-1.826t2.723-2.531q1.41-1.346,2.755-2.722t2.114-2.307q.609-.7,1.057-.7c.171,0,.257.107.257.321a1.149,1.149,0,0,1-.193.576,23.281,23.281,0,0,1-1.729,2.082q-1.22,1.345-2.82,2.947t-3.075,2.947q-1.473,1.345-2.53,2.211a3.418,3.418,0,0,1-2.179.865,3.048,3.048,0,0,1-2.418-1.154,4.907,4.907,0,0,1-.977-3.267q0-3.2,2.627-7.528a1.885,1.885,0,0,0,.32-.8.227.227,0,0,0-.256-.257,1.237,1.237,0,0,0-.48.128,14.69,14.69,0,0,0-3.268,2.627q-1.633,1.7-4.133,4.645a52.424,52.424,0,0,1-5.637,6.054,3.141,3.141,0,0,1-2.05.769,4.014,4.014,0,0,1-3.108-1.73,5.858,5.858,0,0,1-1.409-3.78,4.545,4.545,0,0,1,.321-1.7,25.254,25.254,0,0,1,3.78-6.262,41.948,41.948,0,0,1,5.317-5.51,56.289,56.289,0,0,1,5.478-4.2,35.775,35.775,0,0,1,4.26-2.515A7.043,7.043,0,0,1,1138.227,579.177Z" fill="#fff"/>
        <path id="Path_295" data-name="Path 295" d="M1144.985,595.9a.283.283,0,0,1-.32-.32q0-.321.513-.8.736-.641,1.713-1.618t1.779-1.842a17.49,17.49,0,0,0,1.344-1.618,2.726,2.726,0,0,0,.545-.945,9.114,9.114,0,0,1-1.313-4.132,4.871,4.871,0,0,1,1.281-3.2,18.884,18.884,0,0,1,4.229-3.363,1.773,1.773,0,0,1,.865-.193.991.991,0,0,1,.864.32q2.4,2.628,2.4,4,0,1.57-3.01,4.005c-.256.171-.385.331-.385.48,0,.172.107.257.32.257a1.729,1.729,0,0,0,.545-.129,14.213,14.213,0,0,1,4.517-1.057,4.51,4.51,0,0,1,2.13.5,11.769,11.769,0,0,1,2.131,1.521,2.332,2.332,0,0,1,.576,1.666,6.876,6.876,0,0,1-.384,2.082,17.607,17.607,0,0,1-1.01,2.435q-.624,1.25-1.313,2.354t-1.362,2.1l-.448.737a2.066,2.066,0,0,0-.32.833c0,.128.043.192.128.192a2.411,2.411,0,0,0,.865-.448q.9-.705,2.37-1.858t2.435-1.938q.96-.785,6.278-5.109.9-.8,1.826-1.538a1.308,1.308,0,0,1,.8-.384q.385,0,.385.32a1.037,1.037,0,0,1-.449.736q-1.858,1.57-4.116,3.7t-5.686,5.429q-1.89,1.7-3.171,2.947t-1.987,1.826a6.216,6.216,0,0,1-3.939,1.986,1.088,1.088,0,0,1-.737-.224,11.151,11.151,0,0,1-2.483-2.355,3.659,3.659,0,0,1-.72-2.1,8.916,8.916,0,0,1,.64-2.627v-.064a11.248,11.248,0,0,1,1.394-2.4q.977-1.345,2.738-3.556,1.729-2.049,2.579-3.219a3.581,3.581,0,0,0,.849-1.842q0-.448-.737-.448h-.256a1.871,1.871,0,0,1-.449.064,10.152,10.152,0,0,0-3.3,1.313,13.407,13.407,0,0,1-3.075,1.249,3.485,3.485,0,0,0-1.505.769q-.7.609-2.307,2.114-2.019,1.954-2.818,2.627A2.566,2.566,0,0,1,1144.985,595.9Z" fill="#fff"/>
      </g>
      <g id="Group_64" data-name="Group 64">
        <path id="Path_296" data-name="Path 296" d="M1067.695,477.851l-3.922,1.911-1.351-2.773,11.223-5.47,1.352,2.774-3.987,1.943,5.765,11.83-3.314,1.615Z" fill="#fff"/>
        <path id="Path_297" data-name="Path 297" d="M1093.118,473.508c1.574,5.088-.556,9.129-5.092,10.532-4.6,1.425-8.375-1.218-9.743-5.639-1.44-4.651.454-9.047,5.037-10.465C1088.086,466.461,1091.793,469.225,1093.118,473.508Zm-11.15,3.677c.941,3.039,3.032,4.739,5.379,4.012,2.372-.734,3.033-3.411,2.1-6.427-.862-2.786-2.938-4.768-5.356-4.019C1081.718,471.485,1081.035,474.169,1081.968,477.185Z" fill="#fff"/>
        <path id="Path_298" data-name="Path 298" d="M1099.628,480.752l-5.492-15.764,3.908-.4,1.905,6.539c.557,1.881,1.1,3.932,1.536,5.535l.048-.005c.085-1.777.269-3.758.473-5.789l.688-6.756,3.884-.4,1.991,6.675c.554,1.857.995,3.556,1.419,5.329l.048-.005c.056-1.822.221-3.753.359-5.705l.641-6.751,3.716-.381-2.516,16.584-3.955.406-2.079-6.812c-.479-1.6-.9-3.082-1.277-4.908l-.048.005c-.1,1.852-.208,3.413-.424,5.082l-.822,7.109Z" fill="#fff"/>
        <path id="Path_299" data-name="Path 299" d="M1120.433,475.512l-1.462,4.072-3.8-.282,6.154-15.83,4.807.357,3.819,16.571-3.942-.293-.94-4.25Zm4.314-2.434-.754-3.512c-.218-.983-.417-2.206-.585-3.185l-.049,0c-.311.943-.642,2.151-.976,3.069l-1.217,3.365Z" fill="#fff"/>
        <path id="Path_300" data-name="Path 300" d="M1135.066,465.146a32.181,32.181,0,0,1,4.846.764c2.349.539,3.914,1.268,4.837,2.42a4.126,4.126,0,0,1,.7,3.647,4.311,4.311,0,0,1-3.69,3.26l-.016.07c1,.7,1.37,1.9,1.436,3.446.085,1.9.1,4.08.269,4.761l-3.666-.84a20.435,20.435,0,0,1-.259-3.943c.03-2.071-.528-2.767-1.979-3.125l-1.081-.247-1.427,6.227-3.549-.814Zm1.986,7.628,1.411.323c1.785.409,3.048-.241,3.365-1.628.334-1.457-.485-2.412-2.125-2.812a9.171,9.171,0,0,0-1.649-.254Z" fill="#fff"/>
        <path id="Path_301" data-name="Path 301" d="M1150.751,469.044a32.847,32.847,0,0,1,4.742,1.516c2.869,1.137,4.525,2.389,5.547,4.065a7.191,7.191,0,0,1,.3,6.7,8.242,8.242,0,0,1-4.935,5.125c-2.115.692-4.785.361-7.744-.812a31.792,31.792,0,0,1-3.789-1.76Zm-1.454,13.687a6.723,6.723,0,0,0,1.161.538c3.084,1.248,5.776.344,7.206-3.265,1.265-3.129.085-5.516-2.852-6.68a7.6,7.6,0,0,0-1.6-.478Z" fill="#fff"/>
        <path id="Path_302" data-name="Path 302" d="M1161.761,486.986a9.375,9.375,0,0,0,3.037,2.9c1.465.835,2.586.67,3.111-.252.5-.879.117-1.763-1.232-3.337-1.879-2.153-2.668-4.322-1.5-6.373,1.372-2.408,4.431-3.105,7.76-1.207a9.939,9.939,0,0,1,3.2,2.764l-2.18,2.169a7.723,7.723,0,0,0-2.57-2.352c-1.382-.788-2.41-.542-2.828.191-.512.9.056,1.752,1.484,3.481,1.966,2.34,2.4,4.307,1.265,6.3-1.348,2.365-4.315,3.337-8.188,1.129a10.634,10.634,0,0,1-3.51-3.137Z" fill="#fff"/>
      </g>
    </g>
  </g>
</svg>
