<svg xmlns="http://www.w3.org/2000/svg" xmlns:xlink="http://www.w3.org/1999/xlink" width="368.923" height="232.93" viewBox="0 0 368.923 232.93">
  <defs>
    <linearGradient id="linear-gradient" x1="0.117" y1="0.5" x2="1.117" y2="0.5" gradientUnits="objectBoundingBox">
      <stop offset="0" stop-color="#faeb61"/>
      <stop offset="0.522" stop-color="#f37c21"/>
      <stop offset="0.908" stop-color="#faeb61"/>
    </linearGradient>
    <linearGradient id="linear-gradient-2" x1="0.268" y1="0.164" x2="0.75" y2="0.982" gradientUnits="objectBoundingBox">
      <stop offset="0" stop-color="#f9ae1d"/>
      <stop offset="0.524" stop-color="#f37b20"/>
      <stop offset="0.543" stop-color="#f37d1f"/>
      <stop offset="0.839" stop-color="#f7a01d"/>
      <stop offset="0.997" stop-color="#f9ae1d"/>
    </linearGradient>
    <linearGradient id="linear-gradient-3" x1="0.877" y1="-0.787" x2="0.66" y2="-0.261" gradientUnits="objectBoundingBox">
      <stop offset="0" stop-color="#f37b20"/>
      <stop offset="1" stop-color="#f9ae1d"/>
    </linearGradient>
    <linearGradient id="linear-gradient-4" x1="0.522" y1="0.587" x2="0.243" y2="0.822" gradientUnits="objectBoundingBox">
      <stop offset="0" stop-color="#f9ae1d"/>
      <stop offset="1" stop-color="#f37b20"/>
    </linearGradient>
    <linearGradient id="linear-gradient-5" x1="0.211" y1="0.684" x2="0.57" y2="0.313" xlink:href="#linear-gradient-3"/>
    <linearGradient id="linear-gradient-6" x1="0.823" y1="0.698" x2="0.357" y2="0.437" xlink:href="#linear-gradient-3"/>
    <linearGradient id="linear-gradient-7" x1="0.573" y1="0.373" x2="0.362" y2="0.605" xlink:href="#linear-gradient-4"/>
    <linearGradient id="linear-gradient-8" x1="0.041" y1="0.366" x2="0.532" y2="0.662" xlink:href="#linear-gradient-4"/>
    <linearGradient id="linear-gradient-9" x1="0.31" y1="0.724" x2="0.646" y2="0.479" xlink:href="#linear-gradient-3"/>
  </defs>
  <g id="Group_6" data-name="Group 6" transform="translate(-900.345 -580.231)">
    <g id="Group_3" data-name="Group 3">
      <path id="Path_24" data-name="Path 24" d="M1268.627,705.113c-3.231,26.368-17.6,43.513-22.9,49.667-15.59,18.1-33.405,25.439-41.6,28.7-23.388,9.308-43.493,8.282-57.407,7.418-17.222-1.071-34.141-4.515-50-11.469-20-8.778-37.217-23.143-53.349-37.611-13.617-12.223-27.5-24.594-44.681-31.548-7.927-3.212-19.512-7.759-34.831-7.1-8.45.368-25.865,1.116-36.121,13.868a28,28,0,0,0-6.644,16.687c-.458,13.719,11.12,23.33,11.475,23.62a31.593,31.593,0,0,1-13.216-13.216c-7.025-13.888.051-28.4,1.612-31.606,9.256-18.99,30.684-24.537,38.056-26.446,18.345-4.747,37.676-1.826,54.679,6.153,17.538,8.224,31.58,22.2,45.512,35.322,15.558,14.648,31.271,29.619,49.951,40.275a112.524,112.524,0,0,0,55.478,14.642,104.524,104.524,0,0,0,52.711-13.507c35.186-20.247,55.614-65.74,46.106-102.4a70.743,70.743,0,0,0-7.405-17.9l.5-.349C1263.248,660.045,1271.672,680.267,1268.627,705.113Z" fill="url(#linear-gradient)"/>
      <path id="Path_25" data-name="Path 25" d="M923.864,728.656a26.923,26.923,0,0,1,5.019-8.785,37.339,37.339,0,0,1,7.632-6.791,62.685,62.685,0,0,1,9.017-4.865l2.4-.919,1.2-.459c.4-.143.821-.251,1.231-.379l2.473-.736c.834-.21,1.68-.374,2.521-.563l1.264-.274c.424-.077.853-.121,1.28-.183l2.566-.346,2.585-.16c.431-.022.863-.061,1.294-.07l1.295.013a56.2,56.2,0,0,1,10.3.968l2.536.521c.849.167,1.671.426,2.506.641,1.679.412,3.3,1,4.939,1.523a90.72,90.72,0,0,1,9.5,4,126.315,126.315,0,0,1,17.589,10.521c5.584,3.915,10.912,8.146,16.131,12.477s10.245,8.861,15.293,13.32c1.257,1.127,2.527,2.215,3.8,3.293l3.816,3.25c1.27,1.085,2.608,2.084,3.909,3.131,1.315,1.028,2.606,2.088,3.94,3.09a195.84,195.84,0,0,0,33.981,20.947c1.475.777,3.019,1.4,4.541,2.071l4.576,1.994,4.676,1.742c1.561.573,3.1,1.2,4.706,1.653,3.181.967,6.335,2.046,9.584,2.766l4.841,1.217,4.9.925c3.259.71,6.579,1,9.881,1.438,1.65.253,3.316.3,4.979.409l4.991.32c1.666.031,3.334.01,5,.019l2.5,0,1.253,0c.417-.009.833-.049,1.25-.072l5-.32,2.5-.16,2.505-.245a123.973,123.973,0,0,0,19.689-3.849c3.247-.871,6.471-1.84,9.682-2.859s6.418-2.068,9.618-3.133c-3.121,1.278-6.244,2.555-9.393,3.776s-6.334,2.355-9.548,3.415a120.513,120.513,0,0,1-19.774,4.85c-.841.125-1.675.245-2.517.348l-2.537.255-5.079.51c-.424.039-.847.094-1.272.119l-1.275.045-2.553.091c-1.7.054-3.4.136-5.109.165l-5.112-.157c-1.7-.067-3.414-.073-5.108-.286-3.391-.359-6.808-.571-10.165-1.209l-5.059-.818-5-1.118c-3.356-.674-6.606-1.737-9.891-2.678-1.654-.441-3.247-1.058-4.86-1.62l-4.83-1.716-4.728-1.97c-1.573-.665-3.17-1.281-4.693-2.052a196.267,196.267,0,0,1-34.9-21.225c-1.356-1.03-2.667-2.117-4-3.172-1.321-1.074-2.68-2.1-3.967-3.213l-3.868-3.328c-1.3-1.107-2.579-2.219-3.826-3.35-5.024-4.508-10.042-8.978-15.12-13.36-10.157-8.723-20.783-16.956-32.539-23.114a87.237,87.237,0,0,0-9.034-4.086c-1.556-.54-3.1-1.147-4.684-1.579-.793-.222-1.573-.5-2.373-.687l-2.4-.584a53.5,53.5,0,0,0-9.766-1.274l-1.233-.057c-.411-.007-.821.016-1.232.022l-2.468.063-2.457.243c-.409.044-.821.071-1.228.13l-1.218.208c-.811.144-1.629.263-2.438.426l-2.4.6c-.4.1-.806.189-1.2.309l-1.179.39-2.361.78-2.3.955a23.646,23.646,0,0,0-2.275,1.02c-1.48.759-3.006,1.45-4.417,2.322a36.635,36.635,0,0,0-7.8,6.194A26.575,26.575,0,0,0,923.864,728.656Z" fill="url(#linear-gradient-2)"/>
      <path id="Path_26" data-name="Path 26" d="M1050.731,790.9a157.41,157.41,0,0,1-23.3,9.635,153.458,153.458,0,0,1-24.684,5.659c-2.09.361-4.2.546-6.308.77l-3.168.326-3.194.231c-4.261.276-8.527.425-12.792.414a129.048,129.048,0,0,1-25.413-2.38,78.871,78.871,0,0,1-23.92-8.728,59.128,59.128,0,0,1-18.922-17.213A59.934,59.934,0,0,0,927.1,798.2a81.309,81.309,0,0,0,24.03,10.5,132.987,132.987,0,0,0,25.988,4.076c4.379.284,8.765.4,13.148.391l3.287-.032,3.3-.132c2.2-.1,4.414-.155,6.609-.392a160.8,160.8,0,0,0,26.177-4.316,166.317,166.317,0,0,0,25.206-8.633,169.931,169.931,0,0,0,24.536-13.158q-5.38-2.928-10.733-6.289A159.295,159.295,0,0,1,1050.731,790.9Z" fill="url(#linear-gradient-3)"/>
      <path id="Path_27" data-name="Path 27" d="M1094.472,714.788c0-39.66-38.362-50.306-38.379-50.311,1.515.42,4.517-.708,5.993-1a117.48,117.48,0,0,0,14.777-3.932c12.57-4.245,25.356-10.883,33.3-21.868,7.229-10,8.466-24.147.31-34.016-6.632-8.026-17.219-11.69-27.806-13.464-1.142-.191-2.284-.358-3.421-.508l3.3,1.255c17.666,9.039,27.116,25.787,12.9,42.647-16,18.98-43.582,29.795-67.083,36.046,0,0,14.344-2.656,26.5,6.2a34.922,34.922,0,0,1,11.236,14.115c5.476,12.014,2.676,23.575,1.612,28.058a44.225,44.225,0,0,1-2.7,7.91c7.191,6.771,14.512,13.62,22.174,20.01C1096.8,728.444,1094.472,714.788,1094.472,714.788Z" fill="url(#linear-gradient-4)"/>
      <path id="Path_28" data-name="Path 28" d="M1110.41,744.6a78.618,78.618,0,0,0,2.519-14.972,73.934,73.934,0,0,0-.706-15.075,62.526,62.526,0,0,0-11.034-27.356A49.644,49.644,0,0,0,1090.9,676.81a50.2,50.2,0,0,0-12.658-6.851,49.411,49.411,0,0,1,11.622,8.087,47.267,47.267,0,0,1,8.634,10.925,57.7,57.7,0,0,1,7.312,26.253,66.544,66.544,0,0,1-.887,13.471,69.677,69.677,0,0,1-3.705,12.9,74.9,74.9,0,0,1-5.505,11.134q4.542,3.42,9.279,6.517A86.211,86.211,0,0,0,1110.41,744.6Z" fill="url(#linear-gradient-5)"/>
      <path id="Path_29" data-name="Path 29" d="M1015.134,667.7a124.246,124.246,0,0,0,36.585-15.04c9.364-5.846,19.4-12.4,24.892-22.295,9.237-16.648-9.763-24.95-23.593-24.794a87.276,87.276,0,0,0-42.988,12.421A121.6,121.6,0,0,0,994.4,629.277c-1.171.993-5.333,3.593-5.716,5.206,6.127-25.8-13.864-44.825-13.867-44.828,4.271,4.063,12.571,3.624,18.036,3.871,13.117.594,26-.878,38.992-2.489,12.855-1.593,25.9-3.708,38.627-.378,13.5,3.533,25.277,12.133,26.253,27.054,2.258,34.508-99.333,55.149-99.333,55.149Z" fill="url(#linear-gradient-6)"/>
      <path id="Path_30" data-name="Path 30" d="M1257.342,673.38c-8.447-42.41-50.386-72.922-93.413-64.867-20.092,3.762-38.936,16.287-48.639,34.709a56.68,56.68,0,0,0-6.3,33.107c-.845-6.8,6.113-17.882,9.822-23.332a66.359,66.359,0,0,1,18.12-17.855c27.218-18.081,63.421-13.138,86.223,9.984,24.875,25.224,28.206,70.535,2.9,96.659-19.748,20.382-52.529,26.118-79.33,19.445a89.594,89.594,0,0,1-31.449-14.849,91.531,91.531,0,0,1-5.073,13.892c.765.429,1.539.857,2.336,1.279a108.655,108.655,0,0,0,83.792,7.051C1236.285,755.544,1265.882,716.264,1257.342,673.38Z" fill="url(#linear-gradient-7)"/>
      <path id="Path_31" data-name="Path 31" d="M1050.55,767.455c-.458-.368-.915-.736-1.376-1.1l-.07-.056c-.444-.361-.892-.716-1.341-1.071-.9-.716-1.836-1.456-2.773-2.265l-3.859-3.321c-1.164-1-2.557-2.2-3.951-3.46l-.287-.256a150.96,150.96,0,0,1-24.339,12.722c-25.935,10.91-50.657,11.059-68.067,8.994a55.359,55.359,0,0,1-18.043-8.349,50.032,50.032,0,0,1-19.675-31.938,47.994,47.994,0,0,1,2.139-24.048A44.5,44.5,0,0,1,925.8,691.89a42.2,42.2,0,0,0-17.2,14.59c-10.025,14.476-8.462,30.272-7.63,37.979a57.906,57.906,0,0,0,22.953,40.148c14.632,10.755,35.4,15.037,53.16,16.292,15.129,1.069,30.2-1.589,43.806-5.778q3.716-1.143,7.275-2.427a161.151,161.151,0,0,0,32.391-17.837q-3.644-2.524-7.254-5.238C1052.329,768.885,1051.425,768.158,1050.55,767.455Z" fill="url(#linear-gradient-8)"/>
      <path id="Path_32" data-name="Path 32" d="M1228.171,658.37a63.934,63.934,0,0,0-26.654-25.041,56.438,56.438,0,0,0-9.249-3.609c-31.676-9.165-71.236,9.387-80.028,42.5,1.489-5.608,6.742-11.506,10.436-15.668a69.8,69.8,0,0,1,37.1-21.774c25.745-5.706,54.919,4.129,69.417,27.121l1.972,3.193Z" fill="url(#linear-gradient-9)"/>
    </g>
    <g id="Group_4" data-name="Group 4">
      <path id="Path_33" data-name="Path 33" d="M1117.544,685.835a2.428,2.428,0,0,1-1.1-.238,2.088,2.088,0,0,1-1.219-1.815q0-1.516,2.038-3.346a24.2,24.2,0,0,1,5.428-3.51,45.863,45.863,0,0,1,7.437-2.87,35.608,35.608,0,0,1,7.763-1.428,7.6,7.6,0,0,1,5.577,2.067,8.648,8.648,0,0,1,2.335,5.845,11.367,11.367,0,0,1-.759,3.912,24.219,24.219,0,0,1-1.977,4.1,46.105,46.105,0,0,1-2.558,3.838q-1.34,1.8-3.3,4.3-2.291,2.914-3.212,4.253a1.432,1.432,0,0,0-.3.685c0,.079.06.118.179.118a1.68,1.68,0,0,0,.67-.312,5.354,5.354,0,0,0,.907-.728q9.19-9.489,16.017-13.966t10.962-4.477a4.817,4.817,0,0,1,3.956,1.636,6.791,6.791,0,0,1,1.338,4.432,18.62,18.62,0,0,1-1.011,5.682q-1.1,3.271-3.183,9.072-1.934,5.3-2.766,7.942a14.842,14.842,0,0,0-.833,4.1,2.01,2.01,0,0,0,.238,1.1,1.683,1.683,0,0,1,.327.863q0,.922-1.457.922a7.714,7.714,0,0,1-1.547-.178A8.275,8.275,0,0,1,1152.57,715a8.144,8.144,0,0,1-1.533-5.042,17.8,17.8,0,0,1,.551-4.194,34.994,34.994,0,0,1,1.472-4.6q.922-2.334,1.77-4.194t2.305-4.982q1.636-3.272,2.142-4.491a4.8,4.8,0,0,0,.476-1.785q0-.774-.8-.774-1.456,0-5.442,2.945a104.069,104.069,0,0,0-9.014,7.645q-5.027,4.7-9.771,9.935a99.852,99.852,0,0,0-7.689,9.429,4.059,4.059,0,0,0-.417,1.041q-.179.863-.535.862a1.484,1.484,0,0,1-.684-.237,9.557,9.557,0,0,1-3.228-3.064,6.942,6.942,0,0,1-1.026-3.659,10.284,10.284,0,0,1,1.279-4.729,62.783,62.783,0,0,1,3.734-6.024q2.214-3.2,5.517-7.629,4.521-6.039,6.648-9.355t2.127-5.221q0-1.992-2.737-1.992a16.947,16.947,0,0,0-3.539.475q-11.868,2.738-15.587,9.013a1.241,1.241,0,0,0-.208.565q0,.357.446.357a2.364,2.364,0,0,0,.729-.119q.372-.118.55-.178l-.119.059A5.8,5.8,0,0,1,1117.544,685.835Z" fill="#fff"/>
      <path id="Path_34" data-name="Path 34" d="M1185.215,691.813a3.157,3.157,0,0,1,2.261,1.042,11.4,11.4,0,0,1,2.082,3.42,1.068,1.068,0,0,1,.178.536c0,.278-.148.416-.446.416a1.017,1.017,0,0,1-.773-.416,1.644,1.644,0,0,0-1.339-.536,8.872,8.872,0,0,0-3.659,1.116,28.975,28.975,0,0,0-4.669,2.945,36.739,36.739,0,0,0-4.358,3.866,15.5,15.5,0,0,0-2.811,3.823,2.049,2.049,0,0,0-.238.922c0,.516.209.773.624.773a2.344,2.344,0,0,0,1.28-.654q1.159-.922,3.39-2.885,3.361-2.856,5.37-4.433a14.275,14.275,0,0,1,2.989-1.963,3.427,3.427,0,0,1,1.22-.238,2.555,2.555,0,0,1,2.126,1.012,3.549,3.549,0,0,1,.789,2.231,3.026,3.026,0,0,1-.119.832,6.656,6.656,0,0,1-.729,1.622l-1.532,2.6q-1.012,1.757-1.562,2.8a17.058,17.058,0,0,0-.847,1.814,1.926,1.926,0,0,0-.149.684q0,.714.506.714a1.033,1.033,0,0,0,.6-.3q.8-.594,2.022-1.7t2.529-2.35q1.308-1.25,2.558-2.528t1.963-2.142c.376-.436.7-.655.981-.655.159,0,.239.1.239.3a1.062,1.062,0,0,1-.179.535,21.384,21.384,0,0,1-1.607,1.934q-1.13,1.25-2.617,2.737t-2.855,2.736q-1.369,1.25-2.35,2.053a3.171,3.171,0,0,1-2.023.8,2.829,2.829,0,0,1-2.246-1.071,4.56,4.56,0,0,1-.907-3.034,14.037,14.037,0,0,1,2.439-6.991,1.741,1.741,0,0,0,.3-.743.21.21,0,0,0-.237-.238,1.164,1.164,0,0,0-.447.119,13.664,13.664,0,0,0-3.034,2.439q-1.516,1.578-3.837,4.313a48.6,48.6,0,0,1-5.235,5.622,2.915,2.915,0,0,1-1.9.714,3.728,3.728,0,0,1-2.886-1.606,5.441,5.441,0,0,1-1.308-3.51,4.215,4.215,0,0,1,.3-1.577,23.455,23.455,0,0,1,3.51-5.815,38.927,38.927,0,0,1,4.938-5.116,52.02,52.02,0,0,1,5.086-3.9,33.3,33.3,0,0,1,3.956-2.335A6.548,6.548,0,0,1,1185.215,691.813Zm10.114-8.893a.2.2,0,0,1,.148-.06c.317,0,.456.1.417.3a.679.679,0,0,1-.268.3,42.05,42.05,0,0,1-6.321,4.819,9.359,9.359,0,0,1-4.239,1.606,3.915,3.915,0,0,1-3.019-1.532q-1.323-1.531-1.145-5.607.03-.476.416-.476c.159,0,.337.179.536.536a4.612,4.612,0,0,0,1.933,3.093,4.772,4.772,0,0,0,2.781.744,11.15,11.15,0,0,0,3.005-.669,37.3,37.3,0,0,0,5.637-3.049Z" fill="#fff"/>
      <path id="Path_35" data-name="Path 35" d="M1200.266,692.29c0-.238.247-.358.743-.358a1.828,1.828,0,0,1,1.533.848,3.832,3.832,0,0,1,.609,2.276,9.932,9.932,0,0,1-1.487,4.848,2.891,2.891,0,0,0-.357.863c0,.079.019.119.059.119q.359,0,3.361-2.677a11.628,11.628,0,0,1,2.975-2.038,6.652,6.652,0,0,1,2.737-.7,2.715,2.715,0,0,1,2.008.729,3.064,3.064,0,0,1,.728,2.246,10.49,10.49,0,0,1-.6,3.123,2.384,2.384,0,0,0-.119.3,4.634,4.634,0,0,0-.118.654c0,.059.019.089.059.089q.118,0,.595-.446a43.945,43.945,0,0,1,7.2-5.607,10.647,10.647,0,0,1,5-1.77,2.779,2.779,0,0,1,2.364,1.041,4.525,4.525,0,0,1,.789,2.8,12.384,12.384,0,0,1-1.458,5.444q-1.7,3.39-2.513,5.562a10.35,10.35,0,0,0-.819,3.212q0,.834.6.833a4.93,4.93,0,0,0,2.558-1.427,54.879,54.879,0,0,0,4.134-3.986q1.9-2.082,2.5-2.082c.138,0,.208.04.208.118q0,.685-1.785,2.5-.238.267-.713.8a58.991,58.991,0,0,1-4.924,4.789,5.178,5.178,0,0,1-3.257,1.309,5.081,5.081,0,0,1-1.279-.178,5.927,5.927,0,0,1-3.048-1.755,4.1,4.1,0,0,1-.908-2.648,8.877,8.877,0,0,1,.982-3.762q.981-2.069,2.974-5.37l.357-.594a8.681,8.681,0,0,0,1.488-3.54q0-.684-.625-.684-.981,0-3.228,1.621a39.753,39.753,0,0,0-4.863,4.268,50.081,50.081,0,0,0-4.878,5.756,27.05,27.05,0,0,0-3.361,5.9.613.613,0,0,1-.6.417,2.138,2.138,0,0,1-1.2-.446,3.133,3.133,0,0,1-1-1.131,5.569,5.569,0,0,1-.743-2.855,9.913,9.913,0,0,1,1.1-4.3,26.477,26.477,0,0,1,2.946-4.656,14.971,14.971,0,0,0,1.382-2.171,4.026,4.026,0,0,0,.55-1.606q0-.476-.415-.476a2.035,2.035,0,0,0-.685.178,12.223,12.223,0,0,0-3.495,2.663q-2.157,2.127-4.566,4.967t-4.179,5.369a24.89,24.89,0,0,0-2.246,3.629c-.118.238-.2.357-.238.357a1.22,1.22,0,0,1-.446-.178l-.238-.179a3.36,3.36,0,0,1-1.4-2.945,8.5,8.5,0,0,1,.639-3,26.637,26.637,0,0,1,1.651-3.465q1.011-1.8,2.1-3.451t2.484-3.644q1.428-2.022,2.127-3.153a3.918,3.918,0,0,0,.7-1.547l-.06-.118v-.06A.816.816,0,0,1,1200.266,692.29Z" fill="#fff"/>
    </g>
    <g id="Group_5" data-name="Group 5">
      <path id="Path_36" data-name="Path 36" d="M1127.427,598.14l3.161,5.585,5.413-3.063-3.161-5.586,3.278-1.855,8.225,14.536-3.277,1.854-3.442-6.081-5.413,3.063,3.442,6.082-3.3,1.867-8.226-14.535Z" fill="#fff"/>
      <path id="Path_37" data-name="Path 37" d="M1156.111,583.053a5.245,5.245,0,0,1,1.209,2.038,2.555,2.555,0,0,1-1.724,3.37l-.388.173,2.2,7.026c1.54,4.92-.211,8.039-4.375,9.342-4.021,1.259-7.082-.224-8.674-5.31l-2.784-8.894,3.619-1.133,2.873,9.178c.859,2.744,2.336,3.814,4.182,3.236,1.892-.592,2.518-2.242,1.637-5.057l-2.872-9.179,2.743-.858c.971-.3,1.134-.693.942-1.308a3.24,3.24,0,0,0-.993-1.429Z" fill="#fff"/>
      <path id="Path_38" data-name="Path 38" d="M1177.16,581.594a5.582,5.582,0,0,1,.826,2.463,2.487,2.487,0,0,1-2.339,2.955,9.454,9.454,0,0,1,1.855,4.957c.506,5.454-2.494,9.069-7.356,9.521-4.937.458-8.171-3-8.611-7.739-.463-4.986,2.375-9.009,7.287-9.465a9.774,9.774,0,0,1,3.081.211,9.761,9.761,0,0,0,2.524.637c.617-.057.884-.406.822-1.072a3.684,3.684,0,0,0-.711-1.751Zm-3.621,10.867c-.277-2.986-1.947-5.42-4.539-5.18-2.567.239-3.787,2.916-3.5,6,.266,3.138,2.023,5.439,4.566,5.2S1173.84,595.694,1173.539,592.461Zm-.737-12.23-2.729,3.316-3.012.28,1.791-3.229Z" fill="#fff"/>
      <path id="Path_39" data-name="Path 39" d="M1179.959,600.589l1.835-16.6,4.385.485,2.776,6.465a48.241,48.241,0,0,1,2.081,5.99l.074.008a61.984,61.984,0,0,1,.445-6.957l.537-4.853,3.448.381-1.835,16.6-3.941-.436-2.84-6.8a61.992,61.992,0,0,1-2.234-6.182l-.077.017c-.144,2.2-.353,4.549-.653,7.259l-.552,5Z" fill="#fff"/>
      <path id="Path_40" data-name="Path 40" d="M1209.7,606.066a18.686,18.686,0,0,1-5.6-.764c-2.91-.909-4.786-2.3-5.809-4.178a8.084,8.084,0,0,1-.437-6.5c1.68-5.291,6.482-7.114,11.71-5.481a11.52,11.52,0,0,1,4.18,2.163l-1.66,2.65a9.24,9.24,0,0,0-3.5-1.847c-3-.939-5.807.055-6.886,3.509-1.028,3.288.424,5.871,3.381,6.795a5.051,5.051,0,0,0,1.848.317l1.043-3.335-2.46-.769.879-2.815,5.937,1.855Z" fill="#fff"/>
      <path id="Path_41" data-name="Path 41" d="M1219.663,600.342l1.505.91,3.386-5.6a33.563,33.563,0,0,1,4.561,2.324c2.693,1.629,4.193,3.173,4.943,5.046a7.526,7.526,0,0,1-.9,6.9c-1.68,2.778-3.81,4.1-5.894,4.43-2.262.34-4.924-.43-7.724-2.122A32.766,32.766,0,0,1,1216,609.8l3.642-6.023-1.506-.91Zm6.045,7.1-2.843-1.719-2.2,3.648a10.839,10.839,0,0,0,1.1.722c2.969,1.8,5.806,1.368,7.922-2.132,1.872-3.1,1.039-5.6-1.76-7.291a8.308,8.308,0,0,0-1.541-.758l-1.987,3.288,2.842,1.718Z" fill="#fff"/>
      <path id="Path_42" data-name="Path 42" d="M1242.128,619.754l-4.683-3.983-2.569,3.021,5.23,4.449L1238.1,625.6l-8.118-6.906,10.825-12.724,7.853,6.681-2.008,2.36-4.964-4.224-2.249,2.643,4.682,3.983Zm6.214-12.546-.257,3.784-1.869-1.59.182-1.9-.039-.032-1.842.482-1.831-1.557,3.656-.893Zm5.981,2.419h-4.361l-1.378-1.172,3.266-.932Z" fill="#fff"/>
      <path id="Path_43" data-name="Path 43" d="M1239.529,626.889l12.7-10.857,2.867,3.354L1252.7,626a48.4,48.4,0,0,1-2.581,5.794l.048.056a62.256,62.256,0,0,1,5.086-4.771l3.712-3.174,2.255,2.639-12.7,10.857-2.577-3.015,2.58-6.9a61.754,61.754,0,0,1,2.6-6.038l-.068-.041c-1.612,1.509-3.371,3.077-5.443,4.849l-3.825,3.27Z" fill="#fff"/>
    </g>
  </g>
</svg>
