<svg xmlns="http://www.w3.org/2000/svg" xmlns:xlink="http://www.w3.org/1999/xlink" width="586.447" height="103.451" viewBox="0 0 586.447 103.451">
  <defs>
    <filter id="Path_49" x="48.335" y="31.307" width="538.113" height="72.144" filterUnits="userSpaceOnUse">
      <feOffset input="SourceAlpha"/>
      <feGaussianBlur stdDeviation="1.373" result="blur"/>
      <feFlood flood-color="#6d6d6d" flood-opacity="0.702"/>
      <feComposite operator="in" in2="blur"/>
      <feComposite in="SourceGraphic"/>
    </filter>
    <filter id="Ellipse_4" x="0" y="0" width="99.053" height="99.053" filterUnits="userSpaceOnUse">
      <feOffset input="SourceAlpha"/>
      <feGaussianBlur stdDeviation="1.373" result="blur-2"/>
      <feFlood flood-color="#6d6d6d" flood-opacity="0.702"/>
      <feComposite operator="in" in2="blur-2"/>
      <feComposite in="SourceGraphic"/>
    </filter>
    <clipPath id="clip-path">
      <circle id="Ellipse_5" data-name="Ellipse 5" cx="40.604" cy="40.604" r="40.604" transform="translate(612.813 2126.141)" fill="none"/>
    </clipPath>
  </defs>
  <g id="Group_16" data-name="Group 16" transform="translate(-603.89 -2117.219)">
    <g id="Group_13" data-name="Group 13">
      <g transform="matrix(1, 0, 0, 1, 603.89, 2117.22)" filter="url(#Path_49)">
        <path id="Path_49-2" data-name="Path 49" d="M1129.561,2216.549H697.288l-40.943-63.9h519.871c8.468,0,13.089,8.794,7.662,14.58l-41.088,43.813A18.16,18.16,0,0,1,1129.561,2216.549Z" transform="translate(-603.89 -2117.22)" fill="#fff"/>
      </g>
      <path id="Path_50" data-name="Path 50" d="M1126.12,2212.152h-472.7v-55.109H1175.9c3.968,0,6.133,4.118,3.59,6.827l-40.137,42.772A18.177,18.177,0,0,1,1126.12,2212.152Z" fill="#f9ae1d"/>
    </g>
    <g transform="matrix(1, 0, 0, 1, 603.89, 2117.22)" filter="url(#Ellipse_4)">
      <circle id="Ellipse_4-2" data-name="Ellipse 4" cx="45.406" cy="45.406" r="45.406" transform="translate(4.12 4.12)" fill="#fff"/>
    </g>
    <g id="Group_15" data-name="Group 15">
      <g id="Group_14" data-name="Group 14" clip-path="url(#clip-path)">
        <path id="Path_51" data-name="Path 51" d="M611.424,2199.274a14.1,14.1,0,0,0,14.127,14.08H688.11a14.1,14.1,0,0,0,14.127-14.08v-62.351a14.1,14.1,0,0,0-14.127-14.079H625.551a14.1,14.1,0,0,0-14.127,14.079Z" fill="#6eb02e"/>
        <rect id="Rectangle_6" data-name="Rectangle 6" width="70.779" height="70.779" rx="11.01" transform="translate(613.708 2122.822)" fill="none"/>
        <path id="Path_52" data-name="Path 52" d="M668.41,2149.888s-9.74,1.688-17.275,5.718l-7.982-7.982a45.473,45.473,0,0,0-5.8,9.839c-2.556,5.9-.179,15.852-.179,15.852l3.254,3.254a53.187,53.187,0,0,0,.234,6.615l47.73,48.032,27.746-33.3Z" fill="#5a8e30"/>
        <path id="Path_53" data-name="Path 53" d="M647.428,2154.573a36.7,36.7,0,0,0-4.275-6.949s-7.877,6.344-9.162,15.116a13.987,13.987,0,0,0,3.186,10.575,21.787,21.787,0,0,1,6.066-15.3A29.062,29.062,0,0,1,647.428,2154.573Zm20.982-4.685s-14.612.555-23.676,9.619-4.069,23.677-4.069,23.677,13.318-.74,20.9-8.879S668.41,2149.888,668.41,2149.888Zm-14.354,16.6a25.725,25.725,0,0,1,3.238-.922,26.357,26.357,0,0,1,3.33-.506,16.016,16.016,0,0,1,3.449.045,16.019,16.019,0,0,1-3.118,1.474,26.468,26.468,0,0,1-3.239.924,25.715,25.715,0,0,1-3.328.508,19.17,19.17,0,0,1-2.292.052l-4.147,5.094q.683-.294,1.375-.549a29.748,29.748,0,0,1,3.739-1.064,30.315,30.315,0,0,1,3.844-.584,18.321,18.321,0,0,1,3.981.051,18.305,18.305,0,0,1-3.6,1.7,30.471,30.471,0,0,1-3.738,1.067,29.957,29.957,0,0,1-3.843.587,21.162,21.162,0,0,1-2.8.055c-1.53,1.857-3.063,3.726-4.741,5.667a16.535,16.535,0,0,1,.926-4.326,28.154,28.154,0,0,1,1.747-4.022c.091-.17.2-.332.289-.5a20.354,20.354,0,0,1-.893-2.778,20.725,20.725,0,0,1-.5-2.881,12.753,12.753,0,0,1,.022-3.01,12.7,12.7,0,0,1,1.42,2.654,20.726,20.726,0,0,1,.9,2.783c.1.408.185.821.261,1.235a34.909,34.909,0,0,1,3.367-4.378,16.368,16.368,0,0,1-1.379-4.279,10.367,10.367,0,0,1-.162-2.521,10.416,10.416,0,0,1,1.382,2.114,16.71,16.71,0,0,1,.941,2.261q.2.6.355,1.215c1.414-1.466,2.88-2.861,4.428-4.18a11.309,11.309,0,0,1-.4-1.1,10.732,10.732,0,0,1-.377-1.752,6.946,6.946,0,0,1-.032-1.855,6.891,6.891,0,0,1,1,1.565,10.715,10.715,0,0,1,.653,1.668c.062.209.113.421.165.632a31.4,31.4,0,0,1,7.191-4.565c-1.841,2.235-3.562,4.451-5.339,6.626l-.4.486c.053-.02.106-.042.159-.061a20.259,20.259,0,0,1,2.558-.728,20.772,20.772,0,0,1,2.629-.4,12.633,12.633,0,0,1,2.723.035,12.672,12.672,0,0,1-2.462,1.164,20.8,20.8,0,0,1-2.557.729,20.3,20.3,0,0,1-2.629.4c-.463.035-.929.058-1.4.055l-3.688,4.5Q653.555,2166.673,654.056,2166.488Z" fill="#fffff5"/>
      </g>
    </g>
    <text id="THÂN_THIỆN_MÔI_TRƯỜNG" data-name="THÂN THIỆN MÔI TRƯỜNG" transform="translate(710.635 2199.605)" fill="#fff" font-size="35.108" font-family="SegoeUI, Segoe UI"><tspan x="0" y="0">THÂN THIỆN MÔI TRƯỜNG</tspan></text>
  </g>
</svg>
