<svg xmlns="http://www.w3.org/2000/svg" xmlns:xlink="http://www.w3.org/1999/xlink" width="395.225" height="103.451" viewBox="0 0 395.225 103.451">
  <defs>
    <filter id="Path_64" x="48.335" y="31.307" width="346.89" height="72.144" filterUnits="userSpaceOnUse">
      <feOffset input="SourceAlpha"/>
      <feGaussianBlur stdDeviation="1.373" result="blur"/>
      <feFlood flood-color="#6d6d6d" flood-opacity="0.702"/>
      <feComposite operator="in" in2="blur"/>
      <feComposite in="SourceGraphic"/>
    </filter>
    <filter id="Ellipse_11" x="0" y="0" width="99.053" height="99.053" filterUnits="userSpaceOnUse">
      <feOffset input="SourceAlpha"/>
      <feGaussianBlur stdDeviation="1.373" result="blur-2"/>
      <feFlood flood-color="#6d6d6d" flood-opacity="0.702"/>
      <feComposite operator="in" in2="blur-2"/>
      <feComposite in="SourceGraphic"/>
    </filter>
    <clipPath id="clip-path">
      <circle id="Ellipse_12" data-name="Ellipse 12" cx="40.604" cy="40.604" r="40.604" fill="none"/>
    </clipPath>
  </defs>
  <g id="Group_28" data-name="Group 28" transform="translate(-726.109 -2436.01)">
    <g id="Group_25" data-name="Group 25" transform="translate(775.636 2471.437)">
      <g transform="matrix(1, 0, 0, 1, -49.53, -35.43)" filter="url(#Path_64)">
        <path id="Path_64-2" data-name="Path 64" d="M1064.094,2535.34H816.951l-38.387-63.9h329.273c7.938,0,12.271,8.794,7.184,14.58L1076.5,2529.83A16.515,16.515,0,0,1,1064.094,2535.34Z" transform="translate(-726.11 -2436.01)" fill="#fff"/>
      </g>
      <path id="Path_65" data-name="Path 65" d="M1060.527,2530.943H775.636v-55.109H1107.2a4.146,4.146,0,0,1,3.365,6.828l-37.625,42.771A16.522,16.522,0,0,1,1060.527,2530.943Z" transform="translate(-775.636 -2471.437)" fill="#f9ae1d"/>
    </g>
    <g transform="matrix(1, 0, 0, 1, 726.11, 2436.01)" filter="url(#Ellipse_11)">
      <circle id="Ellipse_11-2" data-name="Ellipse 11" cx="45.406" cy="45.406" r="45.406" transform="translate(4.12 4.12)" fill="#fff"/>
    </g>
    <g id="Group_27" data-name="Group 27" transform="translate(735.032 2444.933)">
      <g id="Group_26" data-name="Group 26" clip-path="url(#clip-path)">
        <path id="Path_66" data-name="Path 66" d="M733.643,2518.066a14.1,14.1,0,0,0,14.127,14.079h62.56a14.1,14.1,0,0,0,14.126-14.079v-62.352a14.1,14.1,0,0,0-14.126-14.079H747.77a14.1,14.1,0,0,0-14.127,14.079Z" transform="translate(-735.032 -2444.933)" fill="#6eb02e"/>
        <rect id="Rectangle_10" data-name="Rectangle 10" width="70.779" height="70.779" rx="11.01" transform="translate(0.895 -3.319)" fill="none"/>
        <path id="Path_67" data-name="Path 67" d="M790.629,2468.679s-9.74,1.688-17.275,5.718l-7.982-7.982a45.473,45.473,0,0,0-5.8,9.839c-2.556,5.9-.179,15.852-.179,15.852l3.254,3.254a53.187,53.187,0,0,0,.234,6.615l47.73,48.032,27.746-33.3Z" transform="translate(-735.032 -2444.933)" fill="#5a8e30"/>
        <path id="Path_68" data-name="Path 68" d="M769.647,2473.364a36.7,36.7,0,0,0-4.275-6.949s-7.877,6.344-9.162,15.116a13.986,13.986,0,0,0,3.186,10.575,21.784,21.784,0,0,1,6.067-15.3A29.063,29.063,0,0,1,769.647,2473.364Zm20.982-4.685s-14.612.555-23.676,9.619-4.069,23.677-4.069,23.677,13.318-.74,20.9-8.879S790.629,2468.679,790.629,2468.679Zm-14.354,16.6a25.725,25.725,0,0,1,3.238-.922,26.355,26.355,0,0,1,3.33-.5,16.015,16.015,0,0,1,3.449.044,16.019,16.019,0,0,1-3.118,1.474,26.293,26.293,0,0,1-3.239.924,25.715,25.715,0,0,1-3.328.508,19.221,19.221,0,0,1-2.292.052l-4.147,5.094q.682-.294,1.375-.549a29.744,29.744,0,0,1,3.739-1.064,30.315,30.315,0,0,1,3.844-.584,18.445,18.445,0,0,1,3.981.051,18.305,18.305,0,0,1-3.6,1.7,30.3,30.3,0,0,1-3.738,1.067,29.958,29.958,0,0,1-3.843.587,21.122,21.122,0,0,1-2.8.055c-1.53,1.857-3.063,3.726-4.741,5.667a16.544,16.544,0,0,1,.926-4.326,28.209,28.209,0,0,1,1.747-4.022c.091-.17.2-.331.289-.5a20.355,20.355,0,0,1-.893-2.778,20.7,20.7,0,0,1-.5-2.881,12.753,12.753,0,0,1,.022-3.01,12.7,12.7,0,0,1,1.42,2.654,20.763,20.763,0,0,1,.9,2.783c.1.408.185.821.261,1.235a34.99,34.99,0,0,1,3.367-4.378,16.365,16.365,0,0,1-1.379-4.279,10.37,10.37,0,0,1-.162-2.521,10.446,10.446,0,0,1,1.382,2.114,16.717,16.717,0,0,1,.941,2.261q.2.6.355,1.215c1.414-1.466,2.88-2.86,4.428-4.179a11.311,11.311,0,0,1-.4-1.1,10.71,10.71,0,0,1-.377-1.752,6.947,6.947,0,0,1-.032-1.855,6.919,6.919,0,0,1,1,1.565,10.687,10.687,0,0,1,.653,1.669c.062.208.113.42.165.631a31.465,31.465,0,0,1,7.191-4.565c-1.841,2.235-3.562,4.452-5.339,6.626l-.4.486.159-.061a20.427,20.427,0,0,1,2.558-.728,20.773,20.773,0,0,1,2.629-.4,1.4,1.4,0,1,1,.261,1.2,20.8,20.8,0,0,1-2.557.729,20.307,20.307,0,0,1-2.629.4c-.463.035-.929.058-1.4.054l-3.688,4.506Q775.774,2485.464,776.275,2485.279Z" transform="translate(-735.032 -2444.933)" fill="#fffff5"/>
      </g>
    </g>
    <text id="ECO-_FRIENDLY" data-name="ECO- FRIENDLY" transform="translate(838.96 2517.889)" fill="#fff" font-size="35.108" font-family="SegoeUI, Segoe UI"><tspan x="0" y="0">ECO- FRIENDLY</tspan></text>
  </g>
</svg>
