<svg xmlns="http://www.w3.org/2000/svg" xmlns:xlink="http://www.w3.org/1999/xlink" width="549.693" height="103.451" viewBox="0 0 549.693 103.451">
  <defs>
    <filter id="Path_54" x="48.335" y="31.307" width="501.358" height="72.144" filterUnits="userSpaceOnUse">
      <feOffset input="SourceAlpha"/>
      <feGaussianBlur stdDeviation="1.373" result="blur"/>
      <feFlood flood-color="#6d6d6d" flood-opacity="0.702"/>
      <feComposite operator="in" in2="blur"/>
      <feComposite in="SourceGraphic"/>
    </filter>
    <filter id="Ellipse_6" x="0" y="0" width="99.054" height="99.053" filterUnits="userSpaceOnUse">
      <feOffset input="SourceAlpha"/>
      <feGaussianBlur stdDeviation="1.373" result="blur-2"/>
      <feFlood flood-color="#6d6d6d" flood-opacity="0.702"/>
      <feComposite operator="in" in2="blur-2"/>
      <feComposite in="SourceGraphic"/>
    </filter>
    <clipPath id="clip-path">
      <circle id="Ellipse_7" data-name="Ellipse 7" cx="40.604" cy="40.604" r="40.604" transform="translate(1183.352 2126.141)" fill="none"/>
    </clipPath>
  </defs>
  <g id="Group_20" data-name="Group 20" transform="translate(-1174.429 -2117.219)">
    <g id="Group_17" data-name="Group 17">
      <g transform="matrix(1, 0, 0, 1, 1174.43, 2117.22)" filter="url(#Path_54)">
        <path id="Path_54-2" data-name="Path 54" d="M1665.284,2216.549H1266.425l-39.541-63.9h483.458c8.178,0,12.641,8.794,7.4,14.58l-39.682,43.813A17.247,17.247,0,0,1,1665.284,2216.549Z" transform="translate(-1174.43 -2117.22)" fill="#fff"/>
      </g>
      <path id="Path_55" data-name="Path 55" d="M1661.777,2212.152H1223.955v-55.109h485.9c3.831,0,5.922,4.118,3.467,6.827l-38.757,42.772A17.259,17.259,0,0,1,1661.777,2212.152Z" fill="#f9ae1d"/>
    </g>
    <g transform="matrix(1, 0, 0, 1, 1174.43, 2117.22)" filter="url(#Ellipse_6)">
      <circle id="Ellipse_6-2" data-name="Ellipse 6" cx="45.406" cy="45.406" r="45.406" transform="translate(4.12 4.12)" fill="#fff"/>
    </g>
    <g id="Group_19" data-name="Group 19">
      <g id="Group_18" data-name="Group 18" clip-path="url(#clip-path)">
        <path id="Path_56" data-name="Path 56" d="M1181.963,2199.274a14.1,14.1,0,0,0,14.126,14.08h62.56a14.1,14.1,0,0,0,14.127-14.08v-62.351a14.1,14.1,0,0,0-14.127-14.079h-62.56a14.1,14.1,0,0,0-14.126,14.079Z" fill="#6eb02e"/>
        <rect id="Rectangle_7" data-name="Rectangle 7" width="70.779" height="70.779" rx="11.01" transform="translate(1184.246 2122.822)" fill="none"/>
        <path id="Path_57" data-name="Path 57" d="M1291.99,2203.022l-45.685-45.685-7.838-1.4-7.49,1.945L1229,2155.9l-8.139.328-5.307,3.556-2.878-2.878-13.025-.095-1.722,14.839,62.712,62.715Z" fill="#5a8e30"/>
        <path id="Path_58" data-name="Path 58" d="M1248.363,2160.427c-2.731-7.043-13.688-8.22-18.6-2.874-.155-3.053-5.263-3.352-7.422-3.215a10.237,10.237,0,0,0-8.1,4.648c-2.179-4.182-7.425-5.427-11.731-4.22a10.047,10.047,0,0,0-7.365,10.059,9.571,9.571,0,0,0,7.878,9.516,16.657,16.657,0,0,0,7.048-.186c1.7-.417,5.137-1.925,4-4.291a9.931,9.931,0,0,0,7.7,4.682c2.317.232,7.394-.028,8.191-2.9,3.45,3.45,9.723,3.839,13.95,1.7,4.668-2.365,6.293-8.17,4.455-12.922C1247.88,2159.182,1248.845,2161.673,1248.363,2160.427Zm-46.725.392a4.4,4.4,0,0,1,5.051-2.855c2.28.438,3.349,2.574,3.47,4.723h-8.9a6.514,6.514,0,0,1,.381-1.868C1201.854,2160.239,1201.424,2161.4,1201.638,2160.819Zm12.219,8.706c-.818-1.041-2.341-.1-3.306.2a12.994,12.994,0,0,1-4.459.7c-2.953-.119-4.7-2.039-4.816-4.962H1212.2c.466,0,.51-.134.564.379a9.878,9.878,0,0,0,1.2,3.85l-.111-.169C1213.6,2169.193,1213.9,2169.579,1213.857,2169.525Zm14.25-.264c-2.185,0-4.24,1.261-6.388.2a5.388,5.388,0,0,1-2.691-5.048c0-2.093.851-4.3,2.935-5.117a5.626,5.626,0,0,1,3.2-.178,7.552,7.552,0,0,0,3.246.359,11.235,11.235,0,0,0-.137,9.8l-.162-.012Zm14.171-2.142c-.631,2.722-3.388,5.013-6.183,3.287-2.613-1.608-2.642-5.74-2.113-8.384.555-2.775,3.351-5.2,6.193-3.434,2.627,1.64,2.722,5.853,2.1,8.531C1242.095,2167.909,1242.46,2166.33,1242.278,2167.119Z" fill="#fffff5"/>
      </g>
    </g>
    <text id="TIẾT_KIỆM_NĂNG_LƯỢNG" data-name="TIẾT KIỆM NĂNG LƯỢNG" transform="translate(1283.687 2199.606)" fill="#fff" font-size="35.108" font-family="SegoeUI, Segoe UI"><tspan x="0" y="0">TIẾT KIỆM NĂNG LƯỢNG</tspan></text>
  </g>
</svg>
