<svg xmlns="http://www.w3.org/2000/svg" xmlns:xlink="http://www.w3.org/1999/xlink" width="410.552" height="103.451" viewBox="0 0 410.552 103.451">
  <defs>
    <filter id="Path_69" x="48.335" y="31.307" width="362.217" height="72.144" filterUnits="userSpaceOnUse">
      <feOffset input="SourceAlpha"/>
      <feGaussianBlur stdDeviation="1.373" result="blur"/>
      <feFlood flood-color="#6d6d6d" flood-opacity="0.702"/>
      <feComposite operator="in" in2="blur"/>
      <feComposite in="SourceGraphic"/>
    </filter>
    <filter id="Ellipse_13" x="0" y="0" width="99.054" height="99.053" filterUnits="userSpaceOnUse">
      <feOffset input="SourceAlpha"/>
      <feGaussianBlur stdDeviation="1.373" result="blur-2"/>
      <feFlood flood-color="#6d6d6d" flood-opacity="0.702"/>
      <feComposite operator="in" in2="blur-2"/>
      <feComposite in="SourceGraphic"/>
    </filter>
    <clipPath id="clip-path">
      <circle id="Ellipse_14" data-name="Ellipse 14" cx="40.604" cy="40.604" r="40.604" transform="translate(1208.292 2444.933)" fill="none"/>
    </clipPath>
  </defs>
  <g id="Group_32" data-name="Group 32" transform="translate(-1199.369 -2436.01)">
    <g id="Group_29" data-name="Group 29">
      <g transform="matrix(1, 0, 0, 1, 1199.37, 2436.01)" filter="url(#Path_69)">
        <path id="Path_69-2" data-name="Path 69" d="M1554.025,2535.34H1289.238l-37.414-63.9h344.837c7.737,0,11.961,8.794,7,14.58l-37.549,43.813A15.917,15.917,0,0,1,1554.025,2535.34Z" transform="translate(-1199.37 -2436.01)" fill="#fff"/>
      </g>
      <path id="Path_70" data-name="Path 70" d="M1550.418,2530.943H1248.9v-55.109h347a4.152,4.152,0,0,1,3.279,6.828l-36.663,42.771A15.923,15.923,0,0,1,1550.418,2530.943Z" fill="#f9ae1d"/>
    </g>
    <g transform="matrix(1, 0, 0, 1, 1199.37, 2436.01)" filter="url(#Ellipse_13)">
      <circle id="Ellipse_13-2" data-name="Ellipse 13" cx="45.406" cy="45.406" r="45.406" transform="translate(4.12 4.12)" fill="#fff"/>
    </g>
    <g id="Group_31" data-name="Group 31">
      <g id="Group_30" data-name="Group 30" clip-path="url(#clip-path)">
        <path id="Path_71" data-name="Path 71" d="M1206.9,2518.066a14.1,14.1,0,0,0,14.126,14.079h62.56a14.1,14.1,0,0,0,14.127-14.079v-62.352a14.1,14.1,0,0,0-14.127-14.079h-62.56a14.1,14.1,0,0,0-14.126,14.079Z" fill="#6eb02e"/>
        <rect id="Rectangle_11" data-name="Rectangle 11" width="70.779" height="70.779" rx="11.01" transform="translate(1209.186 2441.614)" fill="none"/>
        <path id="Path_72" data-name="Path 72" d="M1316.93,2521.813l-45.685-45.685-7.838-1.4-7.49,1.945-1.981-1.981-8.139.328-5.307,3.556-2.878-2.878-13.024-.095-1.722,14.839,62.712,62.715Z" fill="#5a8e30"/>
        <path id="Path_73" data-name="Path 73" d="M1273.3,2479.219c-2.731-7.043-13.688-8.22-18.6-2.874-.155-3.053-5.263-3.353-7.422-3.216a10.237,10.237,0,0,0-8.1,4.648c-2.179-4.182-7.425-5.427-11.731-4.22a10.047,10.047,0,0,0-7.365,10.059,9.571,9.571,0,0,0,7.878,9.516,16.673,16.673,0,0,0,7.048-.185c1.7-.418,5.137-1.926,4-4.292a9.931,9.931,0,0,0,7.7,4.682c2.317.232,7.394-.028,8.191-2.9,3.45,3.45,9.723,3.839,13.95,1.7,4.668-2.366,6.293-8.171,4.455-12.922C1272.82,2477.973,1273.785,2480.464,1273.3,2479.219Zm-46.725.391a4.4,4.4,0,0,1,5.051-2.854c2.28.437,3.349,2.574,3.47,4.722h-8.9a6.51,6.51,0,0,1,.381-1.868C1226.794,2479.03,1226.364,2480.191,1226.578,2479.61Zm12.219,8.707c-.818-1.041-2.341-.1-3.306.2a13.016,13.016,0,0,1-4.459.7c-2.953-.119-4.695-2.039-4.816-4.962h10.928c.466,0,.51-.134.563.379a9.9,9.9,0,0,0,1.2,3.85l-.111-.168C1238.536,2487.984,1238.84,2488.371,1238.8,2488.317Zm14.25-.265c-2.185,0-4.24,1.262-6.388.2a5.387,5.387,0,0,1-2.691-5.048c0-2.093.851-4.3,2.935-5.116a5.618,5.618,0,0,1,3.2-.179,7.553,7.553,0,0,0,3.246.36,11.235,11.235,0,0,0-.137,9.8l-.162-.013Zm14.171-2.142c-.631,2.722-3.388,5.013-6.183,3.287-2.613-1.607-2.642-5.74-2.113-8.384.555-2.775,3.351-5.2,6.193-3.434,2.627,1.64,2.722,5.854,2.1,8.531C1267.035,2486.7,1267.4,2485.121,1267.218,2485.91Z" fill="#fffff5"/>
      </g>
    </g>
    <text id="ENERGY_SAVING" data-name="ENERGY SAVING" transform="translate(1308.627 2518.397)" fill="#fff" font-size="35.108" font-family="SegoeUI, Segoe UI"><tspan x="0" y="0">ENERGY SAVING</tspan></text>
  </g>
</svg>
