<svg xmlns="http://www.w3.org/2000/svg" xmlns:xlink="http://www.w3.org/1999/xlink" width="504.51" height="103.451" viewBox="0 0 504.51 103.451">
  <defs>
    <filter id="Path_44" x="48.334" y="31.307" width="456.176" height="72.144" filterUnits="userSpaceOnUse">
      <feOffset input="SourceAlpha"/>
      <feGaussianBlur stdDeviation="1.373" result="blur"/>
      <feFlood flood-color="#6d6d6d" flood-opacity="0.702"/>
      <feComposite operator="in" in2="blur"/>
      <feComposite in="SourceGraphic"/>
    </filter>
    <filter id="Ellipse_2" x="0" y="0" width="99.053" height="99.053" filterUnits="userSpaceOnUse">
      <feOffset input="SourceAlpha"/>
      <feGaussianBlur stdDeviation="1.373" result="blur-2"/>
      <feFlood flood-color="#6d6d6d" flood-opacity="0.702"/>
      <feComposite operator="in" in2="blur-2"/>
      <feComposite in="SourceGraphic"/>
    </filter>
    <clipPath id="clip-path">
      <circle id="Ellipse_3" data-name="Ellipse 3" cx="40.604" cy="40.604" r="40.604" transform="translate(104.126 2126.141)" fill="none"/>
    </clipPath>
  </defs>
  <g id="Group_12" data-name="Group 12" transform="translate(-95.203 -2117.219)">
    <g id="Group_9" data-name="Group 9">
      <g transform="matrix(1, 0, 0, 1, 95.2, 2117.22)" filter="url(#Path_44)">
        <path id="Path_44-2" data-name="Path 44" d="M540.47,2216.549H187.493l-39.835-63.9H585.863c8.237,0,12.734,8.794,7.455,14.58l-39.977,43.813A17.436,17.436,0,0,1,540.47,2216.549Z" transform="translate(-95.2 -2117.22)" fill="#fff"/>
      </g>
      <path id="Path_45" data-name="Path 45" d="M536.973,2212.152H144.73v-55.109H585.409c3.859,0,5.966,4.118,3.493,6.827l-39.05,42.772A17.448,17.448,0,0,1,536.973,2212.152Z" fill="#f9ae1d"/>
    </g>
    <g transform="matrix(1, 0, 0, 1, 95.2, 2117.22)" filter="url(#Ellipse_2)">
      <circle id="Ellipse_2-2" data-name="Ellipse 2" cx="45.406" cy="45.406" r="45.406" transform="translate(4.12 4.12)" fill="#fff"/>
    </g>
    <g id="Group_11" data-name="Group 11">
      <g id="Group_10" data-name="Group 10" clip-path="url(#clip-path)">
        <path id="Path_46" data-name="Path 46" d="M102.738,2199.274a14.1,14.1,0,0,0,14.126,14.08h62.56a14.1,14.1,0,0,0,14.126-14.08v-62.351a14.1,14.1,0,0,0-14.126-14.079h-62.56a14.1,14.1,0,0,0-14.126,14.079Z" fill="#6eb02e"/>
        <path id="Path_47" data-name="Path 47" d="M213.048,2189.246l-50.137-50.137-3.775,3.6s-2.851,2.163-5.665,1.978c-3.436-.225-9.732-1.278-14.7,2.949s-4.349,12.735-4.349,12.735l2.383,2.383v6.509l-11.193,12.681,47.351,47.353Z" fill="#5a8e30"/>
        <rect id="Rectangle_5" data-name="Rectangle 5" width="70.779" height="70.779" rx="11.01" transform="translate(105.021 2122.822)" fill="none"/>
        <path id="Path_48" data-name="Path 48" d="M155.219,2157.916l-4.166.919v6.12l-4.6.646v-5.875l-4.165.918v5.541l-4.605.647v-5.3l-4.166.918v4.962l-8.549,1.2v11.773a2.234,2.234,0,0,0,2.228,2.228h28.932a2.234,2.234,0,0,0,2.228-2.228V2163.93l-3.132.44Zm-12.295,16.705H139.31v-5.082h3.614Zm6.181,0h-3.614v-5.082H149.1Zm6.181-5.082v5.082h-3.614v-5.082Zm7.6-30.468a.275.275,0,0,0-.387.045l0,.006a16.5,16.5,0,0,1-3.621,3.37,7.757,7.757,0,0,1-6.872,1.49c-.827-.149-1.682-.3-2.554-.375a15.815,15.815,0,0,0-2.638.014,17.28,17.28,0,0,0-2.593.482,14.2,14.2,0,0,0-4.792,2.232,12.568,12.568,0,0,0-3.463,3.988,15.441,15.441,0,0,0-1.534,10.045l.088.075.083-.089a16.935,16.935,0,0,1,2.38-9.429,12.1,12.1,0,0,1,3.278-3.434,13.112,13.112,0,0,1,4.358-1.9,17.378,17.378,0,0,1,4.765-.591c.809,0,1.626.069,2.466.145a10.606,10.606,0,0,0,2.653.021,12.013,12.013,0,0,0,4.7-2.213,18.19,18.19,0,0,0,1.969-1.636c.366-.339.715-.692,1.055-1.057a26.536,26.536,0,0,1-.908,2.977,25.438,25.438,0,0,1-1.7,3.76c-1.327,2.362-3.062,4.574-5.375,5.644a11.443,11.443,0,0,1-1.852.619,16.817,16.817,0,0,1-1.96.383,23.575,23.575,0,0,1-4.022.144c-1.364-.06-2.756-.2-4.239-.175a10.432,10.432,0,0,0-2.273.266c-.027.007-.053.017-.081.024a9.666,9.666,0,0,1,1.017-1.264,11.821,11.821,0,0,1,3.087-2.286,12.848,12.848,0,0,1,3.731-1.2,16.761,16.761,0,0,1,4.009-.154l.09-.067-.065-.1a15.034,15.034,0,0,0-4.109-.365,12.743,12.743,0,0,0-4.1.91,11.806,11.806,0,0,0-3.614,2.268,10.978,10.978,0,0,0-1.455,1.622,6.216,6.216,0,0,0-1.037,2.09.79.79,0,0,0,1.176.872l.048-.029a6.661,6.661,0,0,1,3.587-.811c1.321.016,2.719.192,4.154.235a20.327,20.327,0,0,0,4.36-.237,18.485,18.485,0,0,0,2.146-.493,12.866,12.866,0,0,0,2.1-.787,10.541,10.541,0,0,0,3.466-2.856,16.754,16.754,0,0,0,2.236-3.736,33.921,33.921,0,0,0,2.343-8.182A.274.274,0,0,0,162.884,2139.071Z" fill="#fffff5"/>
      </g>
    </g>
    <text id="SẢN_XUẤT_BỀN_VỮNG" data-name="SẢN XUẤT BỀN VỮNG" transform="translate(206.332 2199.605)" fill="#fff" font-size="35.108" font-family="SegoeUI, Segoe UI"><tspan x="0" y="0">SẢN XUẤT BỀN VỮNG</tspan></text>
  </g>
</svg>
